G04 EasyPC Gerber Version 21.0.3 Build 4286 *
G04 #@! TF.Part,Single*
G04 #@! TF.FileFunction,Soldermask,Top *
G04 #@! TF.FilePolarity,Negative *
%FSLAX35Y35*%
%MOIN*%
G04 #@! TA.AperFunction,SMDPad*
%ADD115R,0.01781X0.05324*%
%ADD132R,0.03159X0.07490*%
%ADD101R,0.03553X0.13592*%
%ADD107R,0.03750X0.04143*%
%ADD136R,0.04537X0.11820*%
%ADD108R,0.05400X0.09400*%
%ADD105R,0.05718X0.06506*%
%ADD124R,0.08474X0.12608*%
%ADD110R,0.08474X0.22254*%
%ADD102R,0.15757X0.20285*%
%ADD123R,0.15954X0.21860*%
%ADD137R,0.22450X0.24025*%
%ADD122R,0.28159X0.43907*%
%ADD112R,0.05324X0.05324*%
G04 #@! TA.AperFunction,ComponentPad*
%ADD131R,0.06600X0.06600*%
%ADD116R,0.07096X0.07096*%
G04 #@! TD.AperFunction*
%ADD98C,0.01200*%
G04 #@! TA.AperFunction,ViaPad*
%ADD140C,0.02569*%
%ADD138C,0.02962*%
G04 #@! TA.AperFunction,ComponentPad*
%ADD111C,0.04537*%
G04 #@! TA.AperFunction,ViaPad*
%ADD141C,0.05324*%
G04 #@! TA.AperFunction,ComponentPad*
%ADD130C,0.06506*%
%ADD118C,0.06600*%
%ADD113C,0.06899*%
%ADD117C,0.07096*%
G04 #@! TA.AperFunction,ViaPad*
%ADD139C,0.08474*%
G04 #@! TA.AperFunction,WasherPad*
%ADD100C,0.16348*%
G04 #@! TA.AperFunction,SMDPad*
%ADD114R,0.05324X0.01781*%
%ADD135R,0.04537X0.02372*%
%ADD120R,0.07300X0.02700*%
%ADD133R,0.04734X0.02765*%
%ADD129R,0.08400X0.02800*%
%ADD127R,0.05324X0.02962*%
%ADD119R,0.05600X0.03100*%
%ADD134R,0.06604X0.03159*%
%ADD128R,0.04537X0.03356*%
%ADD103R,0.13592X0.03553*%
%ADD121R,0.09104X0.04813*%
%ADD125R,0.16348X0.05521*%
%ADD106R,0.06506X0.05718*%
%ADD126R,0.13986X0.06899*%
%ADD109R,0.14773X0.09261*%
G04 #@! TA.AperFunction,WasherPad*
%ADD99C,0.28159*%
G04 #@! TA.AperFunction,SMDPad*
%ADD104R,0.20285X0.15757*%
X0Y0D02*
D02*
D98*
X2573Y600D02*
X663990D01*
Y332096*
X2573*
Y600*
D02*
D99*
X24307Y85394D03*
X372733Y34213D03*
X631313Y306899D03*
X644305Y32096D03*
D02*
D100*
X49898Y307835D03*
X341156Y310836D03*
D02*
D101*
X31313Y55718D03*
X35250D03*
X39187D03*
X43124D03*
X47061D03*
X50998D03*
X54935D03*
X58872D03*
X185841Y56506D03*
X193715D03*
X250604D03*
X254541D03*
X258478D03*
X262415D03*
X266352D03*
X270289D03*
X274226D03*
X278163D03*
X282100D03*
X286037D03*
X289974D03*
X293911D03*
X297848D03*
X301785D03*
X305722D03*
X309659D03*
X313596D03*
X317533D03*
X321470D03*
X325407D03*
X413006Y56446D03*
X416943D03*
X420880D03*
X424817D03*
X428754D03*
X432691D03*
X436628D03*
X440565D03*
X444502D03*
X448439D03*
X452376D03*
X456313D03*
X460250D03*
X464187D03*
X468124D03*
X472061D03*
X475998D03*
X479935D03*
X483872D03*
X487809D03*
X491746D03*
X495683D03*
X499620D03*
X503557D03*
X559659Y56506D03*
X563596D03*
X567533D03*
X571470D03*
X575407D03*
X579344D03*
X583281D03*
X587219D03*
X591156D03*
X595093D03*
X599030D03*
X602967D03*
D02*
D102*
X13400Y21072D03*
X76982D03*
X164187Y21860D03*
X211234D03*
X233478D03*
X343518D03*
X395683Y21801D03*
X521667D03*
X542730Y21860D03*
X621077D03*
D02*
D103*
X608085Y141742D03*
Y149616D03*
Y211820D03*
Y219694D03*
Y227569D03*
Y235443D03*
D02*
D104*
X642730Y120088D03*
Y167135D03*
Y190167D03*
Y252962D03*
D02*
D105*
X9856Y139970D03*
X17337D03*
X40171D03*
X47652D03*
X64187Y84852D03*
Y97057D03*
X66943Y214380D03*
X71667Y84852D03*
Y97057D03*
X74423Y214380D03*
X114187Y80915D03*
X114974Y38395D03*
X121667Y80915D03*
X122455Y38395D03*
X148045Y305718D03*
X155526D03*
X183872Y108868D03*
X188990Y273828D03*
X191352Y108868D03*
X196470Y273828D03*
X216156Y255718D03*
X218911Y311624D03*
X219305Y299025D03*
X223636Y255718D03*
X226392Y311624D03*
X226785Y299025D03*
X235447Y311624D03*
X242927D03*
X244502Y100994D03*
X251982D03*
X255919Y200994D03*
Y238395D03*
X259069Y89183D03*
Y100994D03*
X263400Y200994D03*
Y238395D03*
X266549Y89183D03*
Y100994D03*
X293537Y305718D03*
X296470Y280521D03*
X296864Y265954D03*
X301018Y305718D03*
X303951Y280521D03*
X304344Y265954D03*
X305526Y99025D03*
Y149813D03*
X305919Y86820D03*
Y110443D03*
Y125403D03*
Y137608D03*
X306707Y174222D03*
X307100Y186427D03*
Y199025D03*
Y211230D03*
X313006Y99025D03*
Y149813D03*
X313400Y86820D03*
Y110443D03*
Y125403D03*
Y137608D03*
X314187Y174222D03*
X314581Y186427D03*
Y199025D03*
Y211230D03*
X324030Y125797D03*
X324423Y138002D03*
Y150600D03*
X324817Y98631D03*
Y110049D03*
X325211Y87214D03*
X327573Y254931D03*
X328360Y267135D03*
X330329Y290364D03*
X331510Y125797D03*
X331904Y138002D03*
Y150600D03*
X332297Y98631D03*
Y110049D03*
X332691Y87214D03*
X335053Y254931D03*
X335841Y267135D03*
X337809Y290364D03*
X341746Y254931D03*
X342927Y98631D03*
Y110443D03*
X343321Y138002D03*
Y150600D03*
X349226Y254931D03*
X350407Y98631D03*
Y110443D03*
X350801Y138002D03*
Y150600D03*
X366549Y98631D03*
Y110443D03*
Y125797D03*
Y150994D03*
X366943Y86820D03*
Y138002D03*
X374030Y98631D03*
Y110443D03*
Y125797D03*
Y150994D03*
X374423Y86820D03*
Y138002D03*
X383478Y267529D03*
Y278553D03*
X390565Y145876D03*
X390959Y267529D03*
Y278553D03*
X396077Y112805D03*
X398045Y145876D03*
X403557Y112805D03*
X436628Y250206D03*
X437022Y261624D03*
X443321Y192332D03*
X444108Y250206D03*
X444502Y261624D03*
X450801Y192332D03*
X457494Y250600D03*
X457888Y261624D03*
X463793Y322647D03*
X464974Y250600D03*
X465368Y261624D03*
X471274Y322647D03*
X480722D03*
X483085Y110443D03*
Y125009D03*
Y155718D03*
X483478Y139576D03*
X487415Y79734D03*
X487809Y91545D03*
X488203Y322647D03*
X490565Y110443D03*
Y125009D03*
Y155718D03*
X490959Y139576D03*
X494896Y79734D03*
Y258080D03*
X495289Y91545D03*
Y246663D03*
X502376Y258080D03*
X502770Y246663D03*
X503163Y124616D03*
X503557Y110049D03*
Y154931D03*
X503951Y139183D03*
Y323041D03*
X506707Y79340D03*
Y91545D03*
X510644Y124616D03*
X511037Y110049D03*
Y154931D03*
X511431Y139183D03*
Y323041D03*
X514187Y79340D03*
Y91545D03*
X521667Y91151D03*
Y102962D03*
Y128159D03*
X522061Y79734D03*
Y116348D03*
X522848Y322647D03*
X525604Y224616D03*
X526785Y141545D03*
Y153750D03*
X529148Y91151D03*
Y102962D03*
Y128159D03*
Y213592D03*
X529541Y79734D03*
Y116348D03*
X530329Y322647D03*
X530526Y200994D03*
X531116Y236033D03*
Y247450D03*
Y258868D03*
X533085Y224616D03*
X534266Y141545D03*
Y153750D03*
X536234Y91151D03*
X536628Y213592D03*
X538006Y200994D03*
X538596Y236033D03*
Y247450D03*
Y258868D03*
X543715Y91151D03*
X547258Y140364D03*
X554738D03*
X556313Y75009D03*
Y97844D03*
X556707Y86820D03*
X557888Y253356D03*
Y266742D03*
X558281Y171860D03*
X562219Y184458D03*
X563793Y75009D03*
Y97844D03*
X564187Y86820D03*
X565368Y253356D03*
Y266742D03*
X565762Y171860D03*
X569699Y184458D03*
X570880Y97844D03*
X571274Y86820D03*
X572455Y111624D03*
X574817Y143120D03*
Y154537D03*
X578360Y97844D03*
X578754Y86820D03*
X579148Y253750D03*
Y266348D03*
X579935Y111624D03*
X582297Y143120D03*
Y154537D03*
Y171860D03*
Y183671D03*
X586628Y253750D03*
Y266348D03*
X588163Y87214D03*
X588557Y75009D03*
X589778Y171860D03*
Y183671D03*
X595644Y87214D03*
X596037Y75009D03*
X597652Y308868D03*
X598045Y283671D03*
Y296269D03*
X604305Y86820D03*
X604344Y75009D03*
X605132Y308868D03*
X605526Y283671D03*
Y296269D03*
X611785Y86820D03*
X611825Y75009D03*
X630722Y97450D03*
X638203D03*
D02*
D106*
X326195Y186230D03*
Y193710D03*
X338006Y172450D03*
Y179931D03*
X349817Y172450D03*
Y179931D03*
X361234Y297254D03*
Y304734D03*
X369108Y176387D03*
Y183868D03*
X467140Y151387D03*
Y158868D03*
D02*
D107*
X306904Y222254D03*
X313990D03*
D02*
D108*
X258178Y290644D03*
X267278D03*
X276378D03*
D02*
D109*
X267278Y315045D03*
D02*
D110*
X281313Y200893D03*
Y238294D03*
D02*
D111*
X17927Y313592D03*
X51785Y164773D03*
X52967Y221466D03*
X70289Y284065D03*
X71864Y270679D03*
X74226Y277372D03*
X74620Y198238D03*
X93911Y282096D03*
X124226Y189970D03*
X132888Y238789D03*
X147848Y59261D03*
Y157293D03*
X258085Y300206D03*
X276195Y300600D03*
X286037Y43907D03*
X312809Y251387D03*
X320683D03*
X410841Y146269D03*
X468321Y14380D03*
X547455Y156506D03*
X574226Y130915D03*
X650998Y52569D03*
Y60443D03*
Y68710D03*
Y97450D03*
D02*
D112*
X346274Y274813D03*
Y283080D03*
X364778Y275206D03*
Y283474D03*
D02*
D113*
X80132Y143120D03*
X392665Y294932D03*
X402665Y294864D03*
X409266Y319104D03*
X412665Y294932D03*
X419266Y319104D03*
X422652Y294932D03*
X429266Y319104D03*
X432665Y294932D03*
X442665D03*
D02*
D114*
X334713Y204340D03*
Y206309D03*
Y208277D03*
Y210246D03*
Y212214D03*
Y214183D03*
Y216151D03*
Y218120D03*
Y220088D03*
Y222057D03*
Y224025D03*
Y225994D03*
Y227962D03*
Y229931D03*
Y231899D03*
Y233868D03*
X381256Y204340D03*
Y206309D03*
Y208277D03*
Y210246D03*
Y212214D03*
Y214183D03*
Y216151D03*
Y218120D03*
Y220088D03*
Y222057D03*
Y224025D03*
Y225994D03*
Y227962D03*
Y229931D03*
Y231899D03*
Y233868D03*
D02*
D115*
X343321Y195832D03*
Y242476D03*
X345289Y195832D03*
Y242476D03*
X347258Y195832D03*
Y242476D03*
X349226Y195832D03*
Y242476D03*
X351195Y195832D03*
Y242476D03*
X353163Y195832D03*
Y242476D03*
X355132Y195832D03*
Y242476D03*
X357100Y195832D03*
Y242476D03*
X359069Y195832D03*
Y242476D03*
X361037Y195832D03*
Y242476D03*
X363006Y195832D03*
Y242476D03*
X364974Y195832D03*
Y242476D03*
X366943Y195832D03*
Y242476D03*
X368911Y195832D03*
Y242476D03*
X370880Y195832D03*
Y242476D03*
X372848Y195832D03*
Y242476D03*
D02*
D116*
X474226Y290757D03*
D02*
D117*
X169187Y234911D03*
Y244911D03*
X179187Y234911D03*
Y244911D03*
X189187Y234911D03*
Y244911D03*
X199187Y234911D03*
Y244911D03*
X209187Y234911D03*
Y244911D03*
X474226Y300757D03*
X484226Y290757D03*
Y300757D03*
X494226Y290757D03*
Y300757D03*
X504226Y290757D03*
Y300757D03*
X514226Y290757D03*
Y300757D03*
X524226Y290757D03*
Y300757D03*
X534226Y290757D03*
Y300757D03*
X544226Y290757D03*
Y300757D03*
X554226Y290757D03*
Y300757D03*
X564226Y290757D03*
Y300757D03*
D02*
D118*
X257297Y265561D03*
X267114D03*
D02*
D119*
X182671Y288848D03*
Y293848D03*
Y298848D03*
Y303848D03*
X202671Y288848D03*
Y293848D03*
Y298848D03*
Y303848D03*
D02*
D120*
X437255Y202529D03*
Y207529D03*
Y212529D03*
Y217529D03*
Y222529D03*
Y227529D03*
Y232529D03*
X457655Y202529D03*
Y207529D03*
Y212529D03*
Y217529D03*
Y222529D03*
Y227529D03*
Y232529D03*
X490011Y202135D03*
Y207135D03*
Y212135D03*
Y217135D03*
Y222135D03*
Y227135D03*
Y232135D03*
X510411Y202135D03*
Y207135D03*
Y212135D03*
Y217135D03*
Y222135D03*
Y227135D03*
Y232135D03*
D02*
D121*
X60053Y257293D03*
Y263986D03*
Y270679D03*
Y277372D03*
Y284065D03*
D02*
D122*
X18459Y270226D03*
D02*
D123*
X12789Y180128D03*
X51766D03*
D02*
D124*
X13990Y221466D03*
X42337D03*
X91156Y226978D03*
X119502D03*
D02*
D125*
X92730Y296663D03*
X127770D03*
D02*
D126*
X92730Y189970D03*
X112415D03*
D02*
D127*
X27573Y116151D03*
Y119891D03*
Y123631D03*
X37415Y116151D03*
Y119891D03*
Y123631D03*
D02*
D128*
X113990Y59065D03*
Y66545D03*
X123439Y62805D03*
D02*
D129*
X540904Y111604D03*
Y116604D03*
Y121604D03*
Y126604D03*
X560304Y111604D03*
Y116604D03*
Y121604D03*
Y126604D03*
D02*
D130*
X149593Y239091D03*
X149661Y229091D03*
Y249091D03*
X398792Y77700D03*
Y97700D03*
X398860Y87700D03*
D02*
D131*
X106904Y15403D03*
Y25403D03*
X133675Y15403D03*
Y25403D03*
D02*
D132*
X420230Y97943D03*
Y135541D03*
X425230Y97943D03*
Y135541D03*
X430230Y97943D03*
Y135541D03*
X435230Y97943D03*
Y135541D03*
X440230Y97943D03*
Y135541D03*
X445230Y97943D03*
Y135541D03*
X450230Y97943D03*
Y135541D03*
X455230Y97943D03*
Y135541D03*
X460230Y97943D03*
Y135541D03*
X465230Y97943D03*
Y135541D03*
D02*
D133*
X394699Y125994D03*
Y129734D03*
Y133474D03*
X404935Y125994D03*
Y133474D03*
D02*
D134*
X551738Y201998D03*
Y206998D03*
Y211998D03*
Y216998D03*
Y221998D03*
Y226998D03*
Y231998D03*
Y236998D03*
X573093Y201998D03*
Y206998D03*
Y211998D03*
Y216998D03*
Y221998D03*
Y226998D03*
Y231998D03*
Y236998D03*
D02*
D135*
X641746Y77175D03*
Y79734D03*
Y82293D03*
X649226Y77175D03*
Y79734D03*
Y82293D03*
D02*
D136*
X89797Y124714D03*
X98813D03*
X107829D03*
X239797Y126289D03*
X248813D03*
X257829D03*
D02*
D137*
X98813Y151289D03*
X248813Y152864D03*
D02*
D138*
X15565Y122647D03*
X17140Y107293D03*
X22514Y123474D03*
X31313Y46663D03*
X40368Y134458D03*
X42337Y25403D03*
X43774Y115994D03*
X47061Y46663D03*
X47848Y119931D03*
X58872Y46663D03*
X62022Y214380D03*
X64384Y79340D03*
X79344Y214380D03*
X95093Y97057D03*
X106510Y58868D03*
X113596Y101781D03*
X121667Y162411D03*
X126589Y167135D03*
X141156D03*
X141943Y306112D03*
X166352Y258080D03*
X166746Y102175D03*
X169108Y327765D03*
X176589Y54537D03*
X177770Y299025D03*
X178163Y108868D03*
X193911Y47450D03*
X196274Y108868D03*
X197455Y303750D03*
X204541Y273435D03*
X205329Y182883D03*
X205722Y161230D03*
X210447Y298848D03*
X214778Y166348D03*
Y290757D03*
X215565Y83277D03*
X219108Y165954D03*
X219502Y236427D03*
X222258Y78946D03*
X227376Y178553D03*
Y184852D03*
X237612Y78946D03*
X238400Y252569D03*
X239187Y236427D03*
X243518Y227765D03*
X244699Y83277D03*
X248242Y311624D03*
X249817Y236427D03*
Y246663D03*
X250604Y67529D03*
X251392Y44694D03*
X253360Y23828D03*
X256116Y195482D03*
Y232883D03*
X258085Y222254D03*
X258478Y19498D03*
Y45482D03*
X262415Y40757D03*
X263596Y169891D03*
X266352Y47450D03*
X267533Y141151D03*
X273045Y90364D03*
X273439Y101781D03*
X275407Y39183D03*
Y46269D03*
X282100Y47450D03*
X287219Y108868D03*
X287612Y148631D03*
X288400Y93513D03*
X290762Y97057D03*
X291156Y265954D03*
X291549Y280521D03*
X293518Y300206D03*
X293911Y253750D03*
X295486Y170285D03*
X295880Y177765D03*
X296667Y146269D03*
X297061Y116348D03*
X297848Y47450D03*
Y110443D03*
X300211Y99025D03*
X300604Y222254D03*
X300998Y137608D03*
Y300206D03*
X301392Y186427D03*
Y199025D03*
Y211230D03*
X301785Y26191D03*
Y41939D03*
X306904Y38789D03*
X307691Y168710D03*
X309659Y47450D03*
X311628Y39970D03*
X313006Y156899D03*
Y165167D03*
X313596Y119891D03*
X318715Y86820D03*
X319108Y110049D03*
Y144694D03*
Y150600D03*
X319896Y98631D03*
Y199025D03*
X322258Y214773D03*
X323439Y271466D03*
X325801Y178159D03*
X326195Y214380D03*
X327376Y233868D03*
X328951Y161230D03*
X329738Y212805D03*
X332888Y81702D03*
X336037Y249025D03*
X337219Y138002D03*
Y199025D03*
X337612Y125797D03*
Y150600D03*
X339581Y260836D03*
X340368Y188789D03*
X341549Y212411D03*
X342730Y81702D03*
Y249419D03*
X343124Y93120D03*
X343518Y122647D03*
Y132490D03*
X345093Y201781D03*
Y293907D03*
X345880Y166348D03*
X346274Y269891D03*
X347061Y41939D03*
Y213986D03*
X348242Y188395D03*
X349226Y237214D03*
X350801Y160443D03*
X351785Y189576D03*
X352573Y122647D03*
X353754Y264380D03*
X354148Y291545D03*
X355329Y186820D03*
X356510Y204931D03*
X357297Y159655D03*
X360447Y138002D03*
X361234Y150994D03*
Y263198D03*
X361628Y267529D03*
X362022Y86820D03*
X362415Y202529D03*
X364384Y169498D03*
X367140Y225009D03*
X368321Y189576D03*
X368715Y292332D03*
X369108Y169891D03*
X369896Y232096D03*
X370683Y202175D03*
X373045Y224222D03*
Y321860D03*
X373439Y209261D03*
Y218710D03*
X374620Y161624D03*
X375014Y230915D03*
Y283277D03*
X376195Y170679D03*
Y186427D03*
X376589Y256899D03*
Y276978D03*
X377770Y309655D03*
X379344Y125797D03*
Y199813D03*
X380132Y110443D03*
X381707Y98631D03*
X382100Y191939D03*
X384069Y143513D03*
X388006Y227372D03*
X388400Y129340D03*
X388793Y133474D03*
X389974Y307687D03*
X390762Y188395D03*
X391156Y241545D03*
X392337Y217135D03*
X393911Y228159D03*
Y232490D03*
X394699Y42726D03*
X396274Y215954D03*
X397061Y241939D03*
X401785Y242332D03*
X402967Y208080D03*
X403360Y230128D03*
X404541Y149025D03*
Y248631D03*
X406116Y212017D03*
X407297Y263198D03*
X408085Y163592D03*
X408478Y113592D03*
Y182883D03*
X410841Y178946D03*
X411234Y125994D03*
X413006Y94694D03*
X413203Y241545D03*
X414778Y161230D03*
X416746Y228159D03*
Y249419D03*
X420230Y105718D03*
Y126191D03*
X420880Y181309D03*
X421077Y242332D03*
Y258080D03*
X422258Y36033D03*
X423045Y42726D03*
X423439Y190364D03*
X423833Y158080D03*
Y264380D03*
X424226Y87608D03*
X425407Y125797D03*
X426589Y177765D03*
X428163Y258474D03*
X429344Y156506D03*
X429738Y33277D03*
X430132Y227372D03*
X430230Y89576D03*
X431313Y222647D03*
X435644Y244694D03*
X438006Y192332D03*
X440762Y47450D03*
X441156Y126191D03*
X441549Y169891D03*
X442730Y80128D03*
X445486Y318710D03*
X447061Y281702D03*
X447455Y39970D03*
Y70679D03*
X449817Y118317D03*
Y212529D03*
X451392Y125797D03*
X451785Y173041D03*
Y222647D03*
X454148Y317923D03*
X456904Y192332D03*
X458085Y171072D03*
X460250Y42726D03*
X460447Y280521D03*
X463793Y312017D03*
X464187Y69891D03*
X465171Y173828D03*
X465230Y107293D03*
Y127372D03*
X465565Y227529D03*
X467140Y146072D03*
Y164183D03*
X468321Y191939D03*
Y212529D03*
X471077Y250600D03*
X471470Y261624D03*
X471864Y222647D03*
X472258Y47450D03*
X473045Y69498D03*
X473833Y316348D03*
X474620Y231702D03*
X476195Y278946D03*
X476982Y98631D03*
X477770Y37214D03*
X478557Y147450D03*
X480919Y86427D03*
Y234458D03*
X482100Y240364D03*
X483281Y247057D03*
X484069Y202175D03*
X485250Y186820D03*
X487415Y71466D03*
X488203Y316348D03*
X488400Y133671D03*
X488793Y258080D03*
X491156Y167529D03*
X492730Y71072D03*
Y178159D03*
X493911Y149419D03*
X495486Y191545D03*
X496274Y101781D03*
Y156899D03*
X497455Y324222D03*
X498242Y176978D03*
X499817Y184458D03*
X501392Y165561D03*
X502967Y217135D03*
X503360Y192332D03*
X503754Y47450D03*
X504541Y222254D03*
Y232096D03*
X505722Y102175D03*
X506707Y72254D03*
X508478Y165954D03*
Y246663D03*
X509266Y132490D03*
X509659Y258080D03*
X510053Y119104D03*
X512415Y100994D03*
X516352Y118317D03*
X516746Y130521D03*
Y157293D03*
X520289Y224616D03*
X524226Y213592D03*
Y258868D03*
X524620Y200994D03*
X525014Y173828D03*
Y236033D03*
X525407Y247450D03*
X530132Y169104D03*
X535250Y102962D03*
X536825Y134852D03*
X538400Y78159D03*
X540762Y220679D03*
X542730Y140364D03*
X543715Y85246D03*
X544305Y218317D03*
X547061Y111624D03*
X548242Y244694D03*
X551738Y195482D03*
X553754Y126191D03*
X560053Y140364D03*
X561234Y215954D03*
X563203Y194694D03*
X563596Y47450D03*
X565171Y228553D03*
X567140Y154537D03*
X567533Y18710D03*
X570289Y253356D03*
X571077Y266742D03*
X572258Y178159D03*
X575407Y47450D03*
X577376Y242332D03*
X579344Y47450D03*
X580526Y223435D03*
X581707Y74616D03*
X583675Y93907D03*
X584463Y207293D03*
X586825Y202175D03*
X587219Y47450D03*
X588006Y111624D03*
X591156Y31309D03*
X591549Y96663D03*
X592730Y266348D03*
X594699Y197844D03*
Y211820D03*
X595486Y171860D03*
X595880Y183671D03*
Y253750D03*
X597061Y98238D03*
X598242Y278159D03*
X599030Y47450D03*
Y149813D03*
Y219891D03*
Y227765D03*
X602967Y47450D03*
X610447Y308868D03*
X611234Y283671D03*
Y296269D03*
X619502Y75009D03*
Y86820D03*
X625801Y97450D03*
X632100Y71072D03*
X633281Y77372D03*
X634856Y58868D03*
X643518Y97450D03*
X656116Y79734D03*
D02*
D139*
X111234Y110836D03*
X259266Y113986D03*
D02*
D140*
X347061Y248238D03*
X352573D03*
X356904Y254537D03*
X364384Y260836D03*
X388400Y215167D03*
D02*
D141*
X285250Y88395D03*
X0Y0D02*
M02*
