G04 EasyPC Gerber Version 21.0.3 Build 4286 *
G04 #@! TF.Part,Single*
G04 #@! TF.FileFunction,Drillmap *
G04 #@! TF.FilePolarity,Positive *
%FSLAX35Y35*%
%MOIN*%
%ADD11C,0.00500*%
G04 #@! TA.AperFunction,WasherPad*
%ADD105C,0.10000*%
X0Y0D02*
D02*
D11*
X25565Y128585D02*
Y132335D01*
Y130460D02*
X26502D01*
X28690Y132335*
X26502Y130460D02*
X28690Y128585D01*
X27140Y113230D02*
Y116980D01*
Y115106D02*
X28077D01*
X30265Y116980*
X28077Y115106D02*
X30265Y113230D01*
X27927Y319530D02*
Y323280D01*
X31052Y319530*
Y323280*
X32514Y129411D02*
Y133161D01*
Y131287D02*
X33451D01*
X35639Y133161*
X33451Y131287D02*
X35639Y129411D01*
X34307Y91332D02*
Y95082D01*
X35870Y93207*
X37433Y95082*
Y91332*
X41313Y52600D02*
Y56350D01*
Y54476D02*
X42250D01*
X44438Y56350*
X42250Y54476D02*
X44438Y52600D01*
X50368Y140396D02*
Y144146D01*
Y142271D02*
X51306D01*
X53493Y144146*
X51306Y142271D02*
X53493Y140396D01*
X52337Y31341D02*
Y35091D01*
Y33216D02*
X53274D01*
X55462Y35091*
X53274Y33216D02*
X55462Y31341D01*
X53774Y121931D02*
Y125681D01*
Y123806D02*
X54711D01*
X56899Y125681*
X54711Y123806D02*
X56899Y121931D01*
X57061Y52600D02*
Y56350D01*
Y54476D02*
X57998D01*
X60186Y56350*
X57998Y54476D02*
X60186Y52600D01*
X57848Y125868D02*
Y129618D01*
Y127743D02*
X58786D01*
X60974Y129618*
X58786Y127743D02*
X60974Y125868D01*
X59898Y313773D02*
Y317523D01*
X61461Y315648*
X63023Y317523*
Y313773*
X61785Y170711D02*
Y174461D01*
X64911Y170711*
Y174461*
X62967Y227404D02*
Y231154D01*
X66092Y227404*
Y231154*
X68872Y52600D02*
Y56350D01*
Y54476D02*
X69809D01*
X71997Y56350*
X69809Y54476D02*
X71997Y52600D01*
X72022Y220317D02*
Y224067D01*
Y222192D02*
X72959D01*
X75147Y224067*
X72959Y222192D02*
X75147Y220317D01*
X74384Y85278D02*
Y89028D01*
Y87153D02*
X75321D01*
X77509Y89028*
X75321Y87153D02*
X77509Y85278D01*
X80289Y290002D02*
Y293752D01*
X83415Y290002*
Y293752*
X81864Y276616D02*
Y280366D01*
X84989Y276616*
Y280366*
X84226Y283309D02*
Y287059D01*
X87352Y283309*
Y287059*
X84620Y204175D02*
Y207925D01*
X87745Y204175*
Y207925*
X89344Y220317D02*
Y224067D01*
Y222192D02*
X90282D01*
X92470Y224067*
X90282Y222192D02*
X92470Y220317D01*
X90132Y149057D02*
Y152807D01*
X92007*
X92632Y152495*
X92944Y152182*
X93257Y151557*
Y150307*
X92944Y149682*
X92632Y149370*
X92007Y149057*
X90132*
X103911Y288033D02*
Y291783D01*
X107037Y288033*
Y291783*
X105093Y102994D02*
Y106744D01*
Y104869D02*
X106030D01*
X108218Y106744*
X106030Y104869D02*
X108218Y102994D01*
X116510Y64805D02*
Y68555D01*
Y66680D02*
X117447D01*
X119635Y68555*
X117447Y66680D02*
X119635Y64805D01*
X116904Y21341D02*
Y25091D01*
X119091*
X119716Y24778*
X120029Y24153*
X119716Y23528*
X119091Y23216*
X116904*
Y31341D02*
Y35091D01*
X119091*
X119716Y34778*
X120029Y34153*
X119716Y33528*
X119091Y33216*
X116904*
X121234Y118024D02*
Y119274D01*
X121547Y119899*
X121859Y120211*
X122484Y120524*
X123109*
X123734Y120211*
X124047Y119899*
X124359Y119274*
Y118024*
X124047Y117399*
X123734Y117086*
X123109Y116774*
X122484*
X121859Y117086*
X121547Y117399*
X121234Y118024*
X123422Y117711D02*
X124359Y116774D01*
X123596Y107719D02*
Y111469D01*
Y109594D02*
X124534D01*
X126722Y111469*
X124534Y109594D02*
X126722Y107719D01*
X131667Y168348D02*
Y172098D01*
Y170224D02*
X132605D01*
X134793Y172098*
X132605Y170224D02*
X134793Y168348D01*
X134226Y195907D02*
Y199657D01*
X137352Y195907*
Y199657*
X136589Y173073D02*
Y176823D01*
Y174948D02*
X137526D01*
X139714Y176823*
X137526Y174948D02*
X139714Y173073D01*
X142888Y244726D02*
Y248476D01*
X146013Y244726*
Y248476*
X143675Y21341D02*
Y25091D01*
X145863*
X146488Y24778*
X146800Y24153*
X146488Y23528*
X145863Y23216*
X143675*
Y31341D02*
Y35091D01*
X145863*
X146488Y34778*
X146800Y34153*
X146488Y33528*
X145863Y33216*
X143675*
X151156Y173073D02*
Y176823D01*
Y174948D02*
X152093D01*
X154281Y176823*
X152093Y174948D02*
X154281Y173073D01*
X151943Y312049D02*
Y315799D01*
Y313924D02*
X152880D01*
X155068Y315799*
X152880Y313924D02*
X155068Y312049D01*
X157848Y65199D02*
Y68949D01*
X160974Y65199*
Y68949*
X157848Y163230D02*
Y166980D01*
X160974Y163230*
Y166980*
X159593Y245028D02*
Y248778D01*
X162718*
X162093Y246903D02*
X159593D01*
X159661Y235028D02*
Y238778D01*
X162786*
X162161Y236903D02*
X159661D01*
Y255028D02*
Y258778D01*
X162786*
X162161Y256903D02*
X159661D01*
X176352Y264018D02*
Y267768D01*
Y265893D02*
X177290D01*
X179478Y267768*
X177290Y265893D02*
X179478Y264018D01*
X176746Y108112D02*
Y111862D01*
Y109987D02*
X177683D01*
X179871Y111862*
X177683Y109987D02*
X179871Y108112D01*
X179108Y333703D02*
Y337453D01*
Y335578D02*
X180046D01*
X182233Y337453*
X180046Y335578D02*
X182233Y333703D01*
X179187Y242098D02*
Y243348D01*
X179500Y243974*
X179812Y244286*
X180437Y244598*
X181062*
X181687Y244286*
X182000Y243974*
X182312Y243348*
Y242098*
X182000Y241474*
X181687Y241161*
X181062Y240848*
X180437*
X179812Y241161*
X179500Y241474*
X179187Y242098*
Y252098D02*
Y253348D01*
X179500Y253974*
X179812Y254286*
X180437Y254598*
X181062*
X181687Y254286*
X182000Y253974*
X182312Y253348*
Y252098*
X182000Y251474*
X181687Y251161*
X181062Y250848*
X180437*
X179812Y251161*
X179500Y251474*
X179187Y252098*
X186589Y60474D02*
Y64224D01*
Y62350D02*
X187526D01*
X189714Y64224*
X187526Y62350D02*
X189714Y60474D01*
X187770Y304963D02*
Y308713D01*
Y306838D02*
X188707D01*
X190895Y308713*
X188707Y306838D02*
X190895Y304963D01*
X188163Y114805D02*
Y118555D01*
Y116680D02*
X189101D01*
X191289Y118555*
X189101Y116680D02*
X191289Y114805D01*
X189187Y242098D02*
Y243348D01*
X189500Y243974*
X189812Y244286*
X190437Y244598*
X191062*
X191687Y244286*
X192000Y243974*
X192312Y243348*
Y242098*
X192000Y241474*
X191687Y241161*
X191062Y240848*
X190437*
X189812Y241161*
X189500Y241474*
X189187Y242098*
Y252098D02*
Y253348D01*
X189500Y253974*
X189812Y254286*
X190437Y254598*
X191062*
X191687Y254286*
X192000Y253974*
X192312Y253348*
Y252098*
X192000Y251474*
X191687Y251161*
X191062Y250848*
X190437*
X189812Y251161*
X189500Y251474*
X189187Y252098*
X199187Y242098D02*
Y243348D01*
X199500Y243974*
X199812Y244286*
X200437Y244598*
X201062*
X201687Y244286*
X202000Y243974*
X202312Y243348*
Y242098*
X202000Y241474*
X201687Y241161*
X201062Y240848*
X200437*
X199812Y241161*
X199500Y241474*
X199187Y242098*
Y252098D02*
Y253348D01*
X199500Y253974*
X199812Y254286*
X200437Y254598*
X201062*
X201687Y254286*
X202000Y253974*
X202312Y253348*
Y252098*
X202000Y251474*
X201687Y251161*
X201062Y250848*
X200437*
X199812Y251161*
X199500Y251474*
X199187Y252098*
X203911Y53388D02*
Y57138D01*
Y55263D02*
X204849D01*
X207037Y57138*
X204849Y55263D02*
X207037Y53388D01*
X206274Y114805D02*
Y118555D01*
Y116680D02*
X207211D01*
X209399Y118555*
X207211Y116680D02*
X209399Y114805D01*
X207455Y309687D02*
Y313437D01*
Y311562D02*
X208392D01*
X210580Y313437*
X208392Y311562D02*
X210580Y309687D01*
X209187Y242098D02*
Y243348D01*
X209500Y243974*
X209812Y244286*
X210437Y244598*
X211062*
X211687Y244286*
X212000Y243974*
X212312Y243348*
Y242098*
X212000Y241474*
X211687Y241161*
X211062Y240848*
X210437*
X209812Y241161*
X209500Y241474*
X209187Y242098*
Y252098D02*
Y253348D01*
X209500Y253974*
X209812Y254286*
X210437Y254598*
X211062*
X211687Y254286*
X212000Y253974*
X212312Y253348*
Y252098*
X212000Y251474*
X211687Y251161*
X211062Y250848*
X210437*
X209812Y251161*
X209500Y251474*
X209187Y252098*
X214541Y279372D02*
Y283122D01*
Y281247D02*
X215479D01*
X217667Y283122*
X215479Y281247D02*
X217667Y279372D01*
X215329Y188821D02*
Y192571D01*
Y190696D02*
X216266D01*
X218454Y192571*
X216266Y190696D02*
X218454Y188821D01*
X215722Y167167D02*
Y170917D01*
Y169043D02*
X216660D01*
X218848Y170917*
X216660Y169043D02*
X218848Y167167D01*
X219187Y242098D02*
Y243348D01*
X219500Y243974*
X219812Y244286*
X220437Y244598*
X221062*
X221687Y244286*
X222000Y243974*
X222312Y243348*
Y242098*
X222000Y241474*
X221687Y241161*
X221062Y240848*
X220437*
X219812Y241161*
X219500Y241474*
X219187Y242098*
Y252098D02*
Y253348D01*
X219500Y253974*
X219812Y254286*
X220437Y254598*
X221062*
X221687Y254286*
X222000Y253974*
X222312Y253348*
Y252098*
X222000Y251474*
X221687Y251161*
X221062Y250848*
X220437*
X219812Y251161*
X219500Y251474*
X219187Y252098*
X220447Y304785D02*
Y308535D01*
Y306661D02*
X221384D01*
X223572Y308535*
X221384Y306661D02*
X223572Y304785D01*
X224778Y172285D02*
Y176035D01*
Y174161D02*
X225715D01*
X227903Y176035*
X225715Y174161D02*
X227903Y172285D01*
X224778Y296695D02*
Y300445D01*
Y298570D02*
X225715D01*
X227903Y300445*
X225715Y298570D02*
X227903Y296695D01*
X225565Y89215D02*
Y92965D01*
Y91090D02*
X226502D01*
X228690Y92965*
X226502Y91090D02*
X228690Y89215D01*
X229108Y171892D02*
Y175642D01*
Y173767D02*
X230046D01*
X232233Y175642*
X230046Y173767D02*
X232233Y171892D01*
X229502Y242364D02*
Y246114D01*
Y244239D02*
X230439D01*
X232627Y246114*
X230439Y244239D02*
X232627Y242364D01*
X232258Y84884D02*
Y88634D01*
Y86759D02*
X233195D01*
X235383Y88634*
X233195Y86759D02*
X235383Y84884D01*
X237376Y184490D02*
Y188240D01*
Y186365D02*
X238313D01*
X240501Y188240*
X238313Y186365D02*
X240501Y184490D01*
X237376Y190789D02*
Y194539D01*
Y192665D02*
X238313D01*
X240501Y194539*
X238313Y192665D02*
X240501Y190789D01*
X247612Y84884D02*
Y88634D01*
Y86759D02*
X248550D01*
X250737Y88634*
X248550Y86759D02*
X250737Y84884D01*
X248400Y258506D02*
Y262256D01*
Y260381D02*
X249337D01*
X251525Y262256*
X249337Y260381D02*
X251525Y258506D01*
X249187Y242364D02*
Y246114D01*
Y244239D02*
X250124D01*
X252312Y246114*
X250124Y244239D02*
X252312Y242364D01*
X253518Y233703D02*
Y237453D01*
Y235578D02*
X254455D01*
X256643Y237453*
X254455Y235578D02*
X256643Y233703D01*
X254699Y89215D02*
Y92965D01*
Y91090D02*
X255636D01*
X257824Y92965*
X255636Y91090D02*
X257824Y89215D01*
X258242Y317561D02*
Y321311D01*
Y319436D02*
X259180D01*
X261367Y321311*
X259180Y319436D02*
X261367Y317561D01*
X259817Y242364D02*
Y246114D01*
Y244239D02*
X260754D01*
X262942Y246114*
X260754Y244239D02*
X262942Y242364D01*
X259817Y252600D02*
Y256350D01*
Y254476D02*
X260754D01*
X262942Y256350*
X260754Y254476D02*
X262942Y252600D01*
X260604Y73467D02*
Y77217D01*
Y75342D02*
X261542D01*
X263730Y77217*
X261542Y75342D02*
X263730Y73467D01*
X261392Y50632D02*
Y54382D01*
Y52507D02*
X262329D01*
X264517Y54382*
X262329Y52507D02*
X264517Y50632D01*
X263360Y29766D02*
Y33516D01*
Y31641D02*
X264298D01*
X266485Y33516*
X264298Y31641D02*
X266485Y29766D01*
X266116Y201419D02*
Y205169D01*
Y203294D02*
X267054D01*
X269241Y205169*
X267054Y203294D02*
X269241Y201419D01*
X266116Y238821D02*
Y242571D01*
Y240696D02*
X267054D01*
X269241Y242571*
X267054Y240696D02*
X269241Y238821D01*
X267297Y271498D02*
Y275248D01*
X270422*
X269797Y273373D02*
X267297D01*
Y271498D02*
X270422D01*
X268085Y228191D02*
Y231941D01*
Y230066D02*
X269022D01*
X271210Y231941*
X269022Y230066D02*
X271210Y228191D01*
X268085Y306144D02*
Y309894D01*
X271210Y306144*
Y309894*
X268478Y25435D02*
Y29185D01*
Y27310D02*
X269416D01*
X271604Y29185*
X269416Y27310D02*
X271604Y25435D01*
X268478Y51419D02*
Y55169D01*
Y53294D02*
X269416D01*
X271604Y55169*
X269416Y53294D02*
X271604Y51419D01*
X269266Y121173D02*
Y122423D01*
X269578Y123048*
X269891Y123361*
X270516Y123673*
X271141*
X271766Y123361*
X272078Y123048*
X272391Y122423*
Y121173*
X272078Y120548*
X271766Y120236*
X271141Y119923*
X270516*
X269891Y120236*
X269578Y120548*
X269266Y121173*
X271453Y120861D02*
X272391Y119923D01*
X272415Y46695D02*
Y50445D01*
Y48570D02*
X273353D01*
X275541Y50445*
X273353Y48570D02*
X275541Y46695D01*
X273596Y175829D02*
Y179579D01*
Y177704D02*
X274534D01*
X276722Y179579*
X274534Y177704D02*
X276722Y175829D01*
X276352Y53388D02*
Y57138D01*
Y55263D02*
X277290D01*
X279478Y57138*
X277290Y55263D02*
X279478Y53388D01*
X277114Y271498D02*
Y275248D01*
X280239*
X279614Y273373D02*
X277114D01*
Y271498D02*
X280239D01*
X277533Y147089D02*
Y150839D01*
Y148964D02*
X278471D01*
X280659Y150839*
X278471Y148964D02*
X280659Y147089D01*
X283045Y96301D02*
Y100051D01*
Y98176D02*
X283983D01*
X286170Y100051*
X283983Y98176D02*
X286170Y96301D01*
X283439Y107719D02*
Y111469D01*
Y109594D02*
X284376D01*
X286564Y111469*
X284376Y109594D02*
X286564Y107719D01*
X285407Y45120D02*
Y48870D01*
Y46995D02*
X286345D01*
X288533Y48870*
X286345Y46995D02*
X288533Y45120D01*
X285407Y52207D02*
Y55957D01*
Y54082D02*
X286345D01*
X288533Y55957*
X286345Y54082D02*
X288533Y52207D01*
X286195Y306537D02*
Y310287D01*
X289320Y306537*
Y310287*
X292100Y53388D02*
Y57138D01*
Y55263D02*
X293038D01*
X295226Y57138*
X293038Y55263D02*
X295226Y53388D01*
X297437Y95895D02*
X298375D01*
Y95583*
X298063Y94958*
X297750Y94645*
X297125Y94333*
X296500*
X295875Y94645*
X295563Y94958*
X295250Y95583*
Y96833*
X295563Y97458*
X295875Y97770*
X296500Y98083*
X297125*
X297750Y97770*
X298063Y97458*
X298375Y96833*
X296037Y49844D02*
Y53594D01*
X299163Y49844*
Y53594*
X297219Y114805D02*
Y118555D01*
Y116680D02*
X298156D01*
X300344Y118555*
X298156Y116680D02*
X300344Y114805D01*
X297612Y154569D02*
Y158319D01*
Y156444D02*
X298550D01*
X300737Y158319*
X298550Y156444D02*
X300737Y154569D01*
X298400Y99451D02*
Y103201D01*
Y101326D02*
X299337D01*
X301525Y103201*
X299337Y101326D02*
X301525Y99451D01*
X300762Y102994D02*
Y106744D01*
Y104869D02*
X301699D01*
X303887Y106744*
X301699Y104869D02*
X303887Y102994D01*
X301156Y271892D02*
Y275642D01*
Y273767D02*
X302093D01*
X304281Y275642*
X302093Y273767D02*
X304281Y271892D01*
X301549Y286459D02*
Y290209D01*
Y288334D02*
X302487D01*
X304674Y290209*
X302487Y288334D02*
X304674Y286459D01*
X303518Y306144D02*
Y309894D01*
Y308019D02*
X304455D01*
X306643Y309894*
X304455Y308019D02*
X306643Y306144D01*
X303911Y259687D02*
Y263437D01*
Y261562D02*
X304849D01*
X307037Y263437*
X304849Y261562D02*
X307037Y259687D01*
X305486Y176222D02*
Y179972D01*
Y178098D02*
X306424D01*
X308611Y179972*
X306424Y178098D02*
X308611Y176222D01*
X305880Y183703D02*
Y187453D01*
Y185578D02*
X306817D01*
X309005Y187453*
X306817Y185578D02*
X309005Y183703D01*
X306667Y152207D02*
Y155957D01*
Y154082D02*
X307605D01*
X309793Y155957*
X307605Y154082D02*
X309793Y152207D01*
X307061Y122285D02*
Y126035D01*
Y124161D02*
X307998D01*
X310186Y126035*
X307998Y124161D02*
X310186Y122285D01*
X307848Y53388D02*
Y57138D01*
Y55263D02*
X308786D01*
X310974Y57138*
X308786Y55263D02*
X310974Y53388D01*
X307848Y116380D02*
Y120130D01*
Y118255D02*
X308786D01*
X310974Y120130*
X308786Y118255D02*
X310974Y116380D01*
X310211Y104963D02*
Y108713D01*
Y106838D02*
X311148D01*
X313336Y108713*
X311148Y106838D02*
X313336Y104963D01*
X310604Y228191D02*
Y231941D01*
Y230066D02*
X311542D01*
X313730Y231941*
X311542Y230066D02*
X313730Y228191D01*
X310998Y143545D02*
Y147295D01*
Y145420D02*
X311935D01*
X314123Y147295*
X311935Y145420D02*
X314123Y143545D01*
X310998Y306144D02*
Y309894D01*
Y308019D02*
X311935D01*
X314123Y309894*
X311935Y308019D02*
X314123Y306144D01*
X311392Y192364D02*
Y196114D01*
Y194239D02*
X312329D01*
X314517Y196114*
X312329Y194239D02*
X314517Y192364D01*
X311392Y204963D02*
Y208713D01*
Y206838D02*
X312329D01*
X314517Y208713*
X312329Y206838D02*
X314517Y204963D01*
X311392Y217167D02*
Y220917D01*
Y219043D02*
X312329D01*
X314517Y220917*
X312329Y219043D02*
X314517Y217167D01*
X311785Y32128D02*
Y35878D01*
Y34003D02*
X312723D01*
X314911Y35878*
X312723Y34003D02*
X314911Y32128D01*
X311785Y47876D02*
Y51626D01*
Y49751D02*
X312723D01*
X314911Y51626*
X312723Y49751D02*
X314911Y47876D01*
X316904Y44726D02*
Y48476D01*
Y46602D02*
X317841D01*
X320029Y48476*
X317841Y46602D02*
X320029Y44726D01*
X317691Y174648D02*
Y178398D01*
Y176523D02*
X318628D01*
X320816Y178398*
X318628Y176523D02*
X320816Y174648D01*
X319659Y53388D02*
Y57138D01*
Y55263D02*
X320597D01*
X322785Y57138*
X320597Y55263D02*
X322785Y53388D01*
X321628Y45907D02*
Y49657D01*
Y47783D02*
X322565D01*
X324753Y49657*
X322565Y47783D02*
X324753Y45907D01*
X322809Y257325D02*
Y261075D01*
X325934Y257325*
Y261075*
X323006Y162837D02*
Y166587D01*
Y164712D02*
X323943D01*
X326131Y166587*
X323943Y164712D02*
X326131Y162837D01*
X323006Y171104D02*
Y174854D01*
Y172980D02*
X323943D01*
X326131Y174854*
X323943Y172980D02*
X326131Y171104D01*
X323596Y125829D02*
Y129579D01*
Y127704D02*
X324534D01*
X326722Y129579*
X324534Y127704D02*
X326722Y125829D01*
X328715Y92758D02*
Y96508D01*
Y94633D02*
X329652D01*
X331840Y96508*
X329652Y94633D02*
X331840Y92758D01*
X329108Y115986D02*
Y119736D01*
Y117861D02*
X330046D01*
X332233Y119736*
X330046Y117861D02*
X332233Y115986D01*
X329108Y150632D02*
Y154382D01*
Y152507D02*
X330046D01*
X332233Y154382*
X330046Y152507D02*
X332233Y150632D01*
X329108Y156537D02*
Y160287D01*
Y158413D02*
X330046D01*
X332233Y160287*
X330046Y158413D02*
X332233Y156537D01*
X329896Y104569D02*
Y108319D01*
Y106444D02*
X330833D01*
X333021Y108319*
X330833Y106444D02*
X333021Y104569D01*
X329896Y204963D02*
Y208713D01*
Y206838D02*
X330833D01*
X333021Y208713*
X330833Y206838D02*
X333021Y204963D01*
X330683Y257325D02*
Y261075D01*
X333808Y257325*
Y261075*
X332258Y220711D02*
Y224461D01*
Y222586D02*
X333195D01*
X335383Y224461*
X333195Y222586D02*
X335383Y220711D01*
X333439Y277404D02*
Y281154D01*
Y279279D02*
X334376D01*
X336564Y281154*
X334376Y279279D02*
X336564Y277404D01*
X335801Y184096D02*
Y187846D01*
Y185972D02*
X336739D01*
X338926Y187846*
X336739Y185972D02*
X338926Y184096D01*
X336195Y220317D02*
Y224067D01*
Y222192D02*
X337132D01*
X339320Y224067*
X337132Y222192D02*
X339320Y220317D01*
X337376Y239805D02*
Y243555D01*
Y241680D02*
X338313D01*
X340501Y243555*
X338313Y241680D02*
X340501Y239805D01*
X338951Y167167D02*
Y170917D01*
Y169043D02*
X339888D01*
X342076Y170917*
X339888Y169043D02*
X342076Y167167D01*
X339738Y218742D02*
Y222492D01*
Y220617D02*
X340676D01*
X342863Y222492*
X340676Y220617D02*
X342863Y218742D01*
X342888Y87640D02*
Y91390D01*
Y89515D02*
X343825D01*
X346013Y91390*
X343825Y89515D02*
X346013Y87640D01*
X346037Y254963D02*
Y258713D01*
Y256838D02*
X346975D01*
X349163Y258713*
X346975Y256838D02*
X349163Y254963D01*
X347219Y143939D02*
Y147689D01*
Y145814D02*
X348156D01*
X350344Y147689*
X348156Y145814D02*
X350344Y143939D01*
X347219Y204963D02*
Y208713D01*
Y206838D02*
X348156D01*
X350344Y208713*
X348156Y206838D02*
X350344Y204963D01*
X347612Y131734D02*
Y135484D01*
Y133609D02*
X348550D01*
X350737Y135484*
X348550Y133609D02*
X350737Y131734D01*
X347612Y156537D02*
Y160287D01*
Y158413D02*
X348550D01*
X350737Y160287*
X348550Y158413D02*
X350737Y156537D01*
X349581Y266774D02*
Y270524D01*
Y268649D02*
X350518D01*
X352706Y270524*
X350518Y268649D02*
X352706Y266774D01*
X350368Y194726D02*
Y198476D01*
Y196602D02*
X351306D01*
X353493Y198476*
X351306Y196602D02*
X353493Y194726D01*
X351156Y316774D02*
Y320524D01*
X352718Y318649*
X354281Y320524*
Y316774*
X351549Y218348D02*
Y222098D01*
Y220224D02*
X352487D01*
X354674Y222098*
X352487Y220224D02*
X354674Y218348D01*
X352730Y87640D02*
Y91390D01*
Y89515D02*
X353668D01*
X355856Y91390*
X353668Y89515D02*
X355856Y87640D01*
X352730Y255356D02*
Y259106D01*
Y257231D02*
X353668D01*
X355856Y259106*
X353668Y257231D02*
X355856Y255356D01*
X353124Y99057D02*
Y102807D01*
Y100932D02*
X354061D01*
X356249Y102807*
X354061Y100932D02*
X356249Y99057D01*
X353518Y128585D02*
Y132335D01*
Y130460D02*
X354455D01*
X356643Y132335*
X354455Y130460D02*
X356643Y128585D01*
X353518Y138427D02*
Y142177D01*
Y140302D02*
X354455D01*
X356643Y142177*
X354455Y140302D02*
X356643Y138427D01*
X355093Y207719D02*
Y211469D01*
Y209594D02*
X356030D01*
X358218Y211469*
X356030Y209594D02*
X358218Y207719D01*
X355093Y299844D02*
Y303594D01*
Y301720D02*
X356030D01*
X358218Y303594*
X356030Y301720D02*
X358218Y299844D01*
X355880Y172285D02*
Y176035D01*
Y174161D02*
X356817D01*
X359005Y176035*
X356817Y174161D02*
X359005Y172285D01*
X356274Y275829D02*
Y279579D01*
Y277704D02*
X357211D01*
X359399Y279579*
X357211Y277704D02*
X359399Y275829D01*
X357061Y47876D02*
Y51626D01*
Y49751D02*
X357998D01*
X360186Y51626*
X357998Y49751D02*
X360186Y47876D01*
X357061Y219923D02*
Y223673D01*
Y221798D02*
X357998D01*
X360186Y223673*
X357998Y221798D02*
X360186Y219923D01*
X357061Y254175D02*
Y257925D01*
Y256050D02*
X357998D01*
X360186Y257925*
X357998Y256050D02*
X360186Y254175D01*
X358242Y194333D02*
Y198083D01*
Y196208D02*
X359180D01*
X361367Y198083*
X359180Y196208D02*
X361367Y194333D01*
X359226Y243152D02*
Y246902D01*
Y245027D02*
X360164D01*
X362352Y246902*
X360164Y245027D02*
X362352Y243152D01*
X360801Y166380D02*
Y170130D01*
Y168255D02*
X361739D01*
X363926Y170130*
X361739Y168255D02*
X363926Y166380D01*
X361785Y195514D02*
Y199264D01*
Y197389D02*
X362723D01*
X364911Y199264*
X362723Y197389D02*
X364911Y195514D01*
X362573Y128585D02*
Y132335D01*
Y130460D02*
X363510D01*
X365698Y132335*
X363510Y130460D02*
X365698Y128585D01*
X362573Y254175D02*
Y257925D01*
Y256050D02*
X363510D01*
X365698Y257925*
X363510Y256050D02*
X365698Y254175D01*
X363754Y270317D02*
Y274067D01*
Y272192D02*
X364691D01*
X366879Y274067*
X364691Y272192D02*
X366879Y270317D01*
X364148Y297482D02*
Y301232D01*
Y299357D02*
X365085D01*
X367273Y301232*
X365085Y299357D02*
X367273Y297482D01*
X365329Y192758D02*
Y196508D01*
Y194633D02*
X366266D01*
X368454Y196508*
X366266Y194633D02*
X368454Y192758D01*
X366510Y210868D02*
Y214618D01*
Y212743D02*
X367447D01*
X369635Y214618*
X367447Y212743D02*
X369635Y210868D01*
X366904Y260474D02*
Y264224D01*
Y262350D02*
X367841D01*
X370029Y264224*
X367841Y262350D02*
X370029Y260474D01*
X367297Y165593D02*
Y169343D01*
Y167468D02*
X368235D01*
X370422Y169343*
X368235Y167468D02*
X370422Y165593D01*
X370447Y143939D02*
Y147689D01*
Y145814D02*
X371384D01*
X373572Y147689*
X371384Y145814D02*
X373572Y143939D01*
X371234Y156931D02*
Y160681D01*
Y158806D02*
X372172D01*
X374359Y160681*
X372172Y158806D02*
X374359Y156931D01*
X371234Y269136D02*
Y272886D01*
Y271011D02*
X372172D01*
X374359Y272886*
X372172Y271011D02*
X374359Y269136D01*
X371628Y273467D02*
Y277217D01*
Y275342D02*
X372565D01*
X374753Y277217*
X372565Y275342D02*
X374753Y273467D01*
X372022Y92758D02*
Y96508D01*
Y94633D02*
X372959D01*
X375147Y96508*
X372959Y94633D02*
X375147Y92758D01*
X372415Y208467D02*
Y212217D01*
Y210342D02*
X373353D01*
X375541Y212217*
X373353Y210342D02*
X375541Y208467D01*
X374384Y175435D02*
Y179185D01*
Y177310D02*
X375321D01*
X377509Y179185*
X375321Y177310D02*
X377509Y175435D01*
X374384Y266774D02*
Y270524D01*
Y268649D02*
X375321D01*
X377509Y270524*
X375321Y268649D02*
X377509Y266774D01*
X377140Y230947D02*
Y234697D01*
Y232822D02*
X378077D01*
X380265Y234697*
X378077Y232822D02*
X380265Y230947D01*
X378321Y195514D02*
Y199264D01*
Y197389D02*
X379258D01*
X381446Y199264*
X379258Y197389D02*
X381446Y195514D01*
X378715Y298270D02*
Y302020D01*
Y300145D02*
X379652D01*
X381840Y302020*
X379652Y300145D02*
X381840Y298270D01*
X379108Y175829D02*
Y179579D01*
Y177704D02*
X380046D01*
X382233Y179579*
X380046Y177704D02*
X382233Y175829D01*
X379896Y238033D02*
Y241783D01*
Y239909D02*
X380833D01*
X383021Y241783*
X380833Y239909D02*
X383021Y238033D01*
X380683Y208112D02*
Y211862D01*
Y209987D02*
X381620D01*
X383808Y211862*
X381620Y209987D02*
X383808Y208112D01*
X382733Y40151D02*
Y43901D01*
X384295Y42026*
X385858Y43901*
Y40151*
X383045Y230159D02*
Y233909D01*
Y232035D02*
X383983D01*
X386170Y233909*
X383983Y232035D02*
X386170Y230159D01*
X383045Y327797D02*
Y331547D01*
Y329672D02*
X383983D01*
X386170Y331547*
X383983Y329672D02*
X386170Y327797D01*
X383439Y215199D02*
Y218949D01*
Y217074D02*
X384376D01*
X386564Y218949*
X384376Y217074D02*
X386564Y215199D01*
X383439Y224648D02*
Y228398D01*
Y226523D02*
X384376D01*
X386564Y228398*
X384376Y226523D02*
X386564Y224648D01*
X384620Y167561D02*
Y171311D01*
Y169436D02*
X385557D01*
X387745Y171311*
X385557Y169436D02*
X387745Y167561D01*
X385014Y236852D02*
Y240602D01*
Y238728D02*
X385951D01*
X388139Y240602*
X385951Y238728D02*
X388139Y236852D01*
X385014Y289215D02*
Y292965D01*
Y291090D02*
X385951D01*
X388139Y292965*
X385951Y291090D02*
X388139Y289215D01*
X386195Y176616D02*
Y180366D01*
Y178491D02*
X387132D01*
X389320Y180366*
X387132Y178491D02*
X389320Y176616D01*
X386195Y192364D02*
Y196114D01*
Y194239D02*
X387132D01*
X389320Y196114*
X387132Y194239D02*
X389320Y192364D01*
X386589Y262837D02*
Y266587D01*
Y264712D02*
X387526D01*
X389714Y266587*
X387526Y264712D02*
X389714Y262837D01*
X386589Y282915D02*
Y286665D01*
Y284791D02*
X387526D01*
X389714Y286665*
X387526Y284791D02*
X389714Y282915D01*
X387770Y315593D02*
Y319343D01*
Y317468D02*
X388707D01*
X390895Y319343*
X388707Y317468D02*
X390895Y315593D01*
X389344Y131734D02*
Y135484D01*
Y133609D02*
X390282D01*
X392470Y135484*
X390282Y133609D02*
X392470Y131734D01*
X389344Y205750D02*
Y209500D01*
Y207625D02*
X390282D01*
X392470Y209500*
X390282Y207625D02*
X392470Y205750D01*
X390132Y116380D02*
Y120130D01*
Y118255D02*
X391069D01*
X393257Y120130*
X391069Y118255D02*
X393257Y116380D01*
X391707Y104569D02*
Y108319D01*
Y106444D02*
X392644D01*
X394832Y108319*
X392644Y106444D02*
X394832Y104569D01*
X392100Y197876D02*
Y201626D01*
Y199751D02*
X393038D01*
X395226Y201626*
X393038Y199751D02*
X395226Y197876D01*
X394069Y149451D02*
Y153201D01*
Y151326D02*
X395006D01*
X397194Y153201*
X395006Y151326D02*
X397194Y149451D01*
X398006Y233309D02*
Y237059D01*
Y235184D02*
X398943D01*
X401131Y237059*
X398943Y235184D02*
X401131Y233309D01*
X398400Y135278D02*
Y139028D01*
Y137153D02*
X399337D01*
X401525Y139028*
X399337Y137153D02*
X401525Y135278D01*
X398400Y221104D02*
Y224854D01*
Y222980D02*
X399337D01*
X401525Y224854*
X399337Y222980D02*
X401525Y221104D01*
X398793Y139411D02*
Y143161D01*
Y141287D02*
X399731D01*
X401919Y143161*
X399731Y141287D02*
X401919Y139411D01*
X399974Y313624D02*
Y317374D01*
Y315499D02*
X400912D01*
X403100Y317374*
X400912Y315499D02*
X403100Y313624D01*
X400762Y194333D02*
Y198083D01*
Y196208D02*
X401699D01*
X403887Y198083*
X401699Y196208D02*
X403887Y194333D01*
X401156Y247482D02*
Y251232D01*
Y249357D02*
X402093D01*
X404281Y251232*
X402093Y249357D02*
X404281Y247482D01*
X402337Y223073D02*
Y226823D01*
Y224948D02*
X403274D01*
X405462Y226823*
X403274Y224948D02*
X405462Y223073D01*
X402665Y300869D02*
Y304619D01*
X405790*
X405165Y302744D02*
X402665D01*
X403911Y234096D02*
Y237846D01*
Y235972D02*
X404849D01*
X407037Y237846*
X404849Y235972D02*
X407037Y234096D01*
X403911Y238427D02*
Y242177D01*
Y240302D02*
X404849D01*
X407037Y242177*
X404849Y240302D02*
X407037Y238427D01*
X404699Y48663D02*
Y52413D01*
Y50539D02*
X405636D01*
X407824Y52413*
X405636Y50539D02*
X407824Y48663D01*
X406274Y221892D02*
Y225642D01*
Y223767D02*
X407211D01*
X409399Y225642*
X407211Y223767D02*
X409399Y221892D01*
X407061Y247876D02*
Y251626D01*
Y249751D02*
X407998D01*
X410186Y251626*
X407998Y249751D02*
X410186Y247876D01*
X408792Y83637D02*
Y87387D01*
X411917*
X411292Y85513D02*
X408792D01*
Y103637D02*
Y107387D01*
X411917*
X411292Y105513D02*
X408792D01*
X408860Y93637D02*
Y97387D01*
X411985*
X411360Y95513D02*
X408860D01*
X411785Y248270D02*
Y252020D01*
Y250145D02*
X412723D01*
X414911Y252020*
X412723Y250145D02*
X414911Y248270D01*
X412665Y300801D02*
Y304551D01*
X415790*
X415165Y302676D02*
X412665D01*
X412967Y214018D02*
Y217768D01*
Y215893D02*
X413904D01*
X416092Y217768*
X413904Y215893D02*
X416092Y214018D01*
X413360Y236065D02*
Y239815D01*
Y237940D02*
X414298D01*
X416485Y239815*
X414298Y237940D02*
X416485Y236065D01*
X414541Y154963D02*
Y158713D01*
Y156838D02*
X415479D01*
X417667Y158713*
X415479Y156838D02*
X417667Y154963D01*
X414541Y254569D02*
Y258319D01*
Y256444D02*
X415479D01*
X417667Y258319*
X415479Y256444D02*
X417667Y254569D01*
X416116Y217955D02*
Y221705D01*
Y219830D02*
X417054D01*
X419241Y221705*
X417054Y219830D02*
X419241Y217955D01*
X417297Y269136D02*
Y272886D01*
Y271011D02*
X418235D01*
X420422Y272886*
X418235Y271011D02*
X420422Y269136D01*
X418085Y169530D02*
Y173280D01*
Y171405D02*
X419022D01*
X421210Y173280*
X419022Y171405D02*
X421210Y169530D01*
X418478Y119530D02*
Y123280D01*
Y121405D02*
X419416D01*
X421604Y123280*
X419416Y121405D02*
X421604Y119530D01*
X418478Y188821D02*
Y192571D01*
Y190696D02*
X419416D01*
X421604Y192571*
X419416Y190696D02*
X421604Y188821D01*
X419266Y328791D02*
Y325041D01*
X422391*
X420841Y152207D02*
Y155957D01*
X423966Y152207*
Y155957*
X420841Y184884D02*
Y188634D01*
Y186759D02*
X421778D01*
X423966Y188634*
X421778Y186759D02*
X423966Y184884D01*
X421234Y131931D02*
Y135681D01*
Y133806D02*
X422172D01*
X424359Y135681*
X422172Y133806D02*
X424359Y131931D01*
X422665Y300869D02*
Y304619D01*
X425790*
X425165Y302744D02*
X422665D01*
X423006Y100632D02*
Y104382D01*
Y102507D02*
X423943D01*
X426131Y104382*
X423943Y102507D02*
X426131Y100632D01*
X423203Y247482D02*
Y251232D01*
Y249357D02*
X424140D01*
X426328Y251232*
X424140Y249357D02*
X426328Y247482D01*
X424778Y167167D02*
Y170917D01*
Y169043D02*
X425715D01*
X427903Y170917*
X425715Y169043D02*
X427903Y167167D01*
X426746Y234096D02*
Y237846D01*
Y235972D02*
X427683D01*
X429871Y237846*
X427683Y235972D02*
X429871Y234096D01*
X426746Y255356D02*
Y259106D01*
Y257231D02*
X427683D01*
X429871Y259106*
X427683Y257231D02*
X429871Y255356D01*
X429266Y328791D02*
Y325041D01*
X432391*
X430230Y111656D02*
Y115406D01*
Y113531D02*
X431168D01*
X433356Y115406*
X431168Y113531D02*
X433356Y111656D01*
X430230Y132128D02*
Y135878D01*
Y134003D02*
X431168D01*
X433356Y135878*
X431168Y134003D02*
X433356Y132128D01*
X430880Y187246D02*
Y190996D01*
Y189121D02*
X431817D01*
X434005Y190996*
X431817Y189121D02*
X434005Y187246D01*
X431077Y248270D02*
Y252020D01*
Y250145D02*
X432014D01*
X434202Y252020*
X432014Y250145D02*
X434202Y248270D01*
X431077Y264018D02*
Y267768D01*
Y265893D02*
X432014D01*
X434202Y267768*
X432014Y265893D02*
X434202Y264018D01*
X432258Y41970D02*
Y45720D01*
Y43846D02*
X433195D01*
X435383Y45720*
X433195Y43846D02*
X435383Y41970D01*
X432652Y300869D02*
Y304619D01*
X435777*
X435152Y302744D02*
X432652D01*
X433045Y48663D02*
Y52413D01*
Y50539D02*
X433983D01*
X436170Y52413*
X433983Y50539D02*
X436170Y48663D01*
X433439Y196301D02*
Y200051D01*
Y198176D02*
X434376D01*
X436564Y200051*
X434376Y198176D02*
X436564Y196301D01*
X433833Y164018D02*
Y167768D01*
Y165893D02*
X434770D01*
X436958Y167768*
X434770Y165893D02*
X436958Y164018D01*
X433833Y270317D02*
Y274067D01*
Y272192D02*
X434770D01*
X436958Y274067*
X434770Y272192D02*
X436958Y270317D01*
X434226Y93545D02*
Y97295D01*
Y95420D02*
X435164D01*
X437352Y97295*
X435164Y95420D02*
X437352Y93545D01*
X435407Y131734D02*
Y135484D01*
Y133609D02*
X436345D01*
X438533Y135484*
X436345Y133609D02*
X438533Y131734D01*
X436589Y183703D02*
Y187453D01*
Y185578D02*
X437526D01*
X439714Y187453*
X437526Y185578D02*
X439714Y183703D01*
X438163Y264411D02*
Y268161D01*
Y266287D02*
X439101D01*
X441289Y268161*
X439101Y266287D02*
X441289Y264411D01*
X439266Y328791D02*
Y325041D01*
X442391*
X439344Y162443D02*
Y166193D01*
Y164318D02*
X440282D01*
X442470Y166193*
X440282Y164318D02*
X442470Y162443D01*
X439738Y39215D02*
Y42965D01*
Y41090D02*
X440676D01*
X442863Y42965*
X440676Y41090D02*
X442863Y39215D01*
X440132Y233309D02*
Y237059D01*
Y235184D02*
X441069D01*
X443257Y237059*
X441069Y235184D02*
X443257Y233309D01*
X440230Y95514D02*
Y99264D01*
Y97389D02*
X441168D01*
X443356Y99264*
X441168Y97389D02*
X443356Y95514D01*
X441313Y228585D02*
Y232335D01*
Y230460D02*
X442250D01*
X444438Y232335*
X442250Y230460D02*
X444438Y228585D01*
X442665Y300869D02*
Y304619D01*
X445790*
X445165Y302744D02*
X442665D01*
X445644Y250632D02*
Y254382D01*
Y252507D02*
X446581D01*
X448769Y254382*
X446581Y252507D02*
X448769Y250632D01*
X448006Y198270D02*
Y202020D01*
Y200145D02*
X448943D01*
X451131Y202020*
X448943Y200145D02*
X451131Y198270D01*
X450762Y53388D02*
Y57138D01*
Y55263D02*
X451699D01*
X453887Y57138*
X451699Y55263D02*
X453887Y53388D01*
X451156Y132128D02*
Y135878D01*
Y134003D02*
X452093D01*
X454281Y135878*
X452093Y134003D02*
X454281Y132128D01*
X451549Y175829D02*
Y179579D01*
Y177704D02*
X452487D01*
X454674Y179579*
X452487Y177704D02*
X454674Y175829D01*
X452665Y300869D02*
Y304619D01*
X455790*
X455165Y302744D02*
X452665D01*
X452730Y86065D02*
Y89815D01*
Y87940D02*
X453668D01*
X455856Y89815*
X453668Y87940D02*
X455856Y86065D01*
X455486Y324648D02*
Y328398D01*
Y326523D02*
X456424D01*
X458611Y328398*
X456424Y326523D02*
X458611Y324648D01*
X457061Y287640D02*
Y291390D01*
Y289515D02*
X457998D01*
X460186Y291390*
X457998Y289515D02*
X460186Y287640D01*
X457455Y45907D02*
Y49657D01*
Y47783D02*
X458392D01*
X460580Y49657*
X458392Y47783D02*
X460580Y45907D01*
X457455Y76616D02*
Y80366D01*
Y78491D02*
X458392D01*
X460580Y80366*
X458392Y78491D02*
X460580Y76616D01*
X459817Y124254D02*
Y128004D01*
Y126129D02*
X460754D01*
X462942Y128004*
X460754Y126129D02*
X462942Y124254D01*
X459817Y218467D02*
Y222217D01*
Y220342D02*
X460754D01*
X462942Y222217*
X460754Y220342D02*
X462942Y218467D01*
X461392Y131734D02*
Y135484D01*
Y133609D02*
X462329D01*
X464517Y135484*
X462329Y133609D02*
X464517Y131734D01*
X461785Y178978D02*
Y182728D01*
Y180854D02*
X462723D01*
X464911Y182728*
X462723Y180854D02*
X464911Y178978D01*
X461785Y228585D02*
Y232335D01*
Y230460D02*
X462723D01*
X464911Y232335*
X462723Y230460D02*
X464911Y228585D01*
X464148Y323860D02*
Y327610D01*
Y325735D02*
X465085D01*
X467273Y327610*
X465085Y325735D02*
X467273Y323860D01*
X466904Y198270D02*
Y202020D01*
Y200145D02*
X467841D01*
X470029Y202020*
X467841Y200145D02*
X470029Y198270D01*
X468085Y177010D02*
Y180760D01*
Y178885D02*
X469022D01*
X471210Y180760*
X469022Y178885D02*
X471210Y177010D01*
X470250Y48663D02*
Y52413D01*
Y50539D02*
X471187D01*
X473375Y52413*
X471187Y50539D02*
X473375Y48663D01*
X470447Y286459D02*
Y290209D01*
Y288334D02*
X471384D01*
X473572Y290209*
X471384Y288334D02*
X473572Y286459D01*
X473793Y317955D02*
Y321705D01*
Y319830D02*
X474731D01*
X476919Y321705*
X474731Y319830D02*
X476919Y317955D01*
X474187Y75829D02*
Y79579D01*
Y77704D02*
X475124D01*
X477312Y79579*
X475124Y77704D02*
X477312Y75829D01*
X475171Y179766D02*
Y183516D01*
Y181641D02*
X476109D01*
X478296Y183516*
X476109Y181641D02*
X478296Y179766D01*
X475230Y113230D02*
Y116980D01*
Y115106D02*
X476168D01*
X478356Y116980*
X476168Y115106D02*
X478356Y113230D01*
X475230Y133309D02*
Y137059D01*
Y135184D02*
X476168D01*
X478356Y137059*
X476168Y135184D02*
X478356Y133309D01*
X475565Y233467D02*
Y237217D01*
Y235342D02*
X476502D01*
X478690Y237217*
X476502Y235342D02*
X478690Y233467D01*
X477140Y152010D02*
Y155760D01*
Y153885D02*
X478077D01*
X480265Y155760*
X478077Y153885D02*
X480265Y152010D01*
X477140Y170120D02*
Y173870D01*
Y171995D02*
X478077D01*
X480265Y173870*
X478077Y171995D02*
X480265Y170120D01*
X478321Y20317D02*
Y24067D01*
X481446Y20317*
Y24067*
X478321Y197876D02*
Y201626D01*
Y199751D02*
X479258D01*
X481446Y201626*
X479258Y199751D02*
X481446Y197876D01*
X478321Y218467D02*
Y222217D01*
Y220342D02*
X479258D01*
X481446Y222217*
X479258Y220342D02*
X481446Y218467D01*
X481077Y256537D02*
Y260287D01*
Y258413D02*
X482014D01*
X484202Y260287*
X482014Y258413D02*
X484202Y256537D01*
X481470Y267561D02*
Y271311D01*
Y269436D02*
X482408D01*
X484596Y271311*
X482408Y269436D02*
X484596Y267561D01*
X481864Y228585D02*
Y232335D01*
Y230460D02*
X482802D01*
X484989Y232335*
X482802Y230460D02*
X484989Y228585D01*
X482258Y53388D02*
Y57138D01*
Y55263D02*
X483195D01*
X485383Y57138*
X483195Y55263D02*
X485383Y53388D01*
X483045Y75435D02*
Y79185D01*
Y77310D02*
X483983D01*
X486170Y79185*
X483983Y77310D02*
X486170Y75435D01*
X483833Y322285D02*
Y326035D01*
Y324161D02*
X484770D01*
X486958Y326035*
X484770Y324161D02*
X486958Y322285D01*
X484226Y297945D02*
Y299195D01*
X484539Y299820*
X484852Y300133*
X485476Y300445*
X486102*
X486726Y300133*
X487039Y299820*
X487352Y299195*
Y297945*
X487039Y297320*
X486726Y297007*
X486102Y296695*
X485476*
X484852Y297007*
X484539Y297320*
X484226Y297945*
Y307945D02*
Y309195D01*
X484539Y309820*
X484852Y310133*
X485476Y310445*
X486102*
X486726Y310133*
X487039Y309820*
X487352Y309195*
Y307945*
X487039Y307320*
X486726Y307007*
X486102Y306695*
X485476*
X484852Y307007*
X484539Y307320*
X484226Y307945*
X484620Y237640D02*
Y241390D01*
Y239515D02*
X485557D01*
X487745Y241390*
X485557Y239515D02*
X487745Y237640D01*
X486195Y284884D02*
Y288634D01*
Y286759D02*
X487132D01*
X489320Y288634*
X487132Y286759D02*
X489320Y284884D01*
X486982Y104569D02*
Y108319D01*
Y106444D02*
X487920D01*
X490107Y108319*
X487920Y106444D02*
X490107Y104569D01*
X487770Y43152D02*
Y46902D01*
Y45027D02*
X488707D01*
X490895Y46902*
X488707Y45027D02*
X490895Y43152D01*
X488557Y153388D02*
Y157138D01*
Y155263D02*
X489494D01*
X491682Y157138*
X489494Y155263D02*
X491682Y153388D01*
X490919Y92364D02*
Y96114D01*
Y94239D02*
X491857D01*
X494044Y96114*
X491857Y94239D02*
X494044Y92364D01*
X490919Y240396D02*
Y244146D01*
Y242271D02*
X491857D01*
X494044Y244146*
X491857Y242271D02*
X494044Y240396D01*
X492100Y246301D02*
Y250051D01*
Y248176D02*
X493038D01*
X495226Y250051*
X493038Y248176D02*
X495226Y246301D01*
X493281Y252994D02*
Y256744D01*
Y254869D02*
X494219D01*
X496407Y256744*
X494219Y254869D02*
X496407Y252994D01*
X494069Y208112D02*
Y211862D01*
Y209987D02*
X495006D01*
X497194Y211862*
X495006Y209987D02*
X497194Y208112D01*
X494226Y297945D02*
Y299195D01*
X494539Y299820*
X494852Y300133*
X495476Y300445*
X496102*
X496726Y300133*
X497039Y299820*
X497352Y299195*
Y297945*
X497039Y297320*
X496726Y297007*
X496102Y296695*
X495476*
X494852Y297007*
X494539Y297320*
X494226Y297945*
Y307945D02*
Y309195D01*
X494539Y309820*
X494852Y310133*
X495476Y310445*
X496102*
X496726Y310133*
X497039Y309820*
X497352Y309195*
Y307945*
X497039Y307320*
X496726Y307007*
X496102Y306695*
X495476*
X494852Y307007*
X494539Y307320*
X494226Y307945*
X495250Y192758D02*
Y196508D01*
Y194633D02*
X496187D01*
X498375Y196508*
X496187Y194633D02*
X498375Y192758D01*
X497415Y77404D02*
Y81154D01*
Y79279D02*
X498353D01*
X500541Y81154*
X498353Y79279D02*
X500541Y77404D01*
X498203Y322285D02*
Y326035D01*
Y324161D02*
X499140D01*
X501328Y326035*
X499140Y324161D02*
X501328Y322285D01*
X498400Y139608D02*
Y143358D01*
Y141483D02*
X499337D01*
X501525Y143358*
X499337Y141483D02*
X501525Y139608D01*
X498793Y264018D02*
Y267768D01*
Y265893D02*
X499731D01*
X501919Y267768*
X499731Y265893D02*
X501919Y264018D01*
X501156Y173467D02*
Y177217D01*
Y175342D02*
X502093D01*
X504281Y177217*
X502093Y175342D02*
X504281Y173467D01*
X502730Y77010D02*
Y80760D01*
Y78885D02*
X503668D01*
X505856Y80760*
X503668Y78885D02*
X505856Y77010D01*
X502730Y184096D02*
Y187846D01*
Y185972D02*
X503668D01*
X505856Y187846*
X503668Y185972D02*
X505856Y184096D01*
X503911Y155356D02*
Y159106D01*
Y157231D02*
X504849D01*
X507037Y159106*
X504849Y157231D02*
X507037Y155356D01*
X504226Y297945D02*
Y299195D01*
X504539Y299820*
X504852Y300133*
X505476Y300445*
X506102*
X506726Y300133*
X507039Y299820*
X507352Y299195*
Y297945*
X507039Y297320*
X506726Y297007*
X506102Y296695*
X505476*
X504852Y297007*
X504539Y297320*
X504226Y297945*
Y307945D02*
Y309195D01*
X504539Y309820*
X504852Y310133*
X505476Y310445*
X506102*
X506726Y310133*
X507039Y309820*
X507352Y309195*
Y307945*
X507039Y307320*
X506726Y307007*
X506102Y306695*
X505476*
X504852Y307007*
X504539Y307320*
X504226Y307945*
X505486Y197482D02*
Y201232D01*
Y199357D02*
X506424D01*
X508611Y201232*
X506424Y199357D02*
X508611Y197482D01*
X506274Y107719D02*
Y111469D01*
Y109594D02*
X507211D01*
X509399Y111469*
X507211Y109594D02*
X509399Y107719D01*
X506274Y162837D02*
Y166587D01*
Y164712D02*
X507211D01*
X509399Y166587*
X507211Y164712D02*
X509399Y162837D01*
X507455Y330159D02*
Y333909D01*
Y332035D02*
X508392D01*
X510580Y333909*
X508392Y332035D02*
X510580Y330159D01*
X508242Y182915D02*
Y186665D01*
Y184791D02*
X509180D01*
X511367Y186665*
X509180Y184791D02*
X511367Y182915D01*
X509817Y190396D02*
Y194146D01*
Y192271D02*
X510754D01*
X512942Y194146*
X510754Y192271D02*
X512942Y190396D01*
X511392Y171498D02*
Y175248D01*
Y173373D02*
X512329D01*
X514517Y175248*
X512329Y173373D02*
X514517Y171498D01*
X512967Y223073D02*
Y226823D01*
Y224948D02*
X513904D01*
X516092Y226823*
X513904Y224948D02*
X516092Y223073D01*
X513360Y198270D02*
Y202020D01*
Y200145D02*
X514298D01*
X516485Y202020*
X514298Y200145D02*
X516485Y198270D01*
X513754Y53388D02*
Y57138D01*
Y55263D02*
X514691D01*
X516879Y57138*
X514691Y55263D02*
X516879Y53388D01*
X514226Y297945D02*
Y299195D01*
X514539Y299820*
X514852Y300133*
X515476Y300445*
X516102*
X516726Y300133*
X517039Y299820*
X517352Y299195*
Y297945*
X517039Y297320*
X516726Y297007*
X516102Y296695*
X515476*
X514852Y297007*
X514539Y297320*
X514226Y297945*
Y307945D02*
Y309195D01*
X514539Y309820*
X514852Y310133*
X515476Y310445*
X516102*
X516726Y310133*
X517039Y309820*
X517352Y309195*
Y307945*
X517039Y307320*
X516726Y307007*
X516102Y306695*
X515476*
X514852Y307007*
X514539Y307320*
X514226Y307945*
X514541Y228191D02*
Y231941D01*
Y230066D02*
X515479D01*
X517667Y231941*
X515479Y230066D02*
X517667Y228191D01*
X514541Y238033D02*
Y241783D01*
Y239909D02*
X515479D01*
X517667Y241783*
X515479Y239909D02*
X517667Y238033D01*
X515722Y108112D02*
Y111862D01*
Y109987D02*
X516660D01*
X518848Y111862*
X516660Y109987D02*
X518848Y108112D01*
X516707Y78191D02*
Y81941D01*
Y80066D02*
X517644D01*
X519832Y81941*
X517644Y80066D02*
X519832Y78191D01*
X518478Y171892D02*
Y175642D01*
Y173767D02*
X519416D01*
X521604Y175642*
X519416Y173767D02*
X521604Y171892D01*
X518478Y252600D02*
Y256350D01*
Y254476D02*
X519416D01*
X521604Y256350*
X519416Y254476D02*
X521604Y252600D01*
X519266Y138427D02*
Y142177D01*
Y140302D02*
X520203D01*
X522391Y142177*
X520203Y140302D02*
X522391Y138427D01*
X519659Y264018D02*
Y267768D01*
Y265893D02*
X520597D01*
X522785Y267768*
X520597Y265893D02*
X522785Y264018D01*
X520053Y125041D02*
Y128791D01*
Y126917D02*
X520991D01*
X523178Y128791*
X520991Y126917D02*
X523178Y125041D01*
X522415Y106931D02*
Y110681D01*
Y108806D02*
X523353D01*
X525541Y110681*
X523353Y108806D02*
X525541Y106931D01*
X524226Y297945D02*
Y299195D01*
X524539Y299820*
X524852Y300133*
X525476Y300445*
X526102*
X526726Y300133*
X527039Y299820*
X527352Y299195*
Y297945*
X527039Y297320*
X526726Y297007*
X526102Y296695*
X525476*
X524852Y297007*
X524539Y297320*
X524226Y297945*
Y307945D02*
Y309195D01*
X524539Y309820*
X524852Y310133*
X525476Y310445*
X526102*
X526726Y310133*
X527039Y309820*
X527352Y309195*
Y307945*
X527039Y307320*
X526726Y307007*
X526102Y306695*
X525476*
X524852Y307007*
X524539Y307320*
X524226Y307945*
X526352Y124254D02*
Y128004D01*
Y126129D02*
X527290D01*
X529478Y128004*
X527290Y126129D02*
X529478Y124254D01*
X526746Y136459D02*
Y140209D01*
Y138334D02*
X527683D01*
X529871Y140209*
X527683Y138334D02*
X529871Y136459D01*
X526746Y163230D02*
Y166980D01*
Y165106D02*
X527683D01*
X529871Y166980*
X527683Y165106D02*
X529871Y163230D01*
X530289Y230553D02*
Y234303D01*
Y232428D02*
X531227D01*
X533415Y234303*
X531227Y232428D02*
X533415Y230553D01*
X534226Y219530D02*
Y223280D01*
Y221405D02*
X535164D01*
X537352Y223280*
X535164Y221405D02*
X537352Y219530D01*
X534226Y264805D02*
Y268555D01*
Y266680D02*
X535164D01*
X537352Y268555*
X535164Y266680D02*
X537352Y264805D01*
X534226Y297945D02*
Y299195D01*
X534539Y299820*
X534852Y300133*
X535476Y300445*
X536102*
X536726Y300133*
X537039Y299820*
X537352Y299195*
Y297945*
X537039Y297320*
X536726Y297007*
X536102Y296695*
X535476*
X534852Y297007*
X534539Y297320*
X534226Y297945*
Y307945D02*
Y309195D01*
X534539Y309820*
X534852Y310133*
X535476Y310445*
X536102*
X536726Y310133*
X537039Y309820*
X537352Y309195*
Y307945*
X537039Y307320*
X536726Y307007*
X536102Y306695*
X535476*
X534852Y307007*
X534539Y307320*
X534226Y307945*
X534620Y206931D02*
Y210681D01*
Y208806D02*
X535557D01*
X537745Y210681*
X535557Y208806D02*
X537745Y206931D01*
X535014Y179766D02*
Y183516D01*
Y181641D02*
X535951D01*
X538139Y183516*
X535951Y181641D02*
X538139Y179766D01*
X535014Y241970D02*
Y245720D01*
Y243846D02*
X535951D01*
X538139Y245720*
X535951Y243846D02*
X538139Y241970D01*
X535407Y253388D02*
Y257138D01*
Y255263D02*
X536345D01*
X538533Y257138*
X536345Y255263D02*
X538533Y253388D01*
X540132Y175041D02*
Y178791D01*
Y176917D02*
X541069D01*
X543257Y178791*
X541069Y176917D02*
X543257Y175041D01*
X544226Y297945D02*
Y299195D01*
X544539Y299820*
X544852Y300133*
X545476Y300445*
X546102*
X546726Y300133*
X547039Y299820*
X547352Y299195*
Y297945*
X547039Y297320*
X546726Y297007*
X546102Y296695*
X545476*
X544852Y297007*
X544539Y297320*
X544226Y297945*
Y307945D02*
Y309195D01*
X544539Y309820*
X544852Y310133*
X545476Y310445*
X546102*
X546726Y310133*
X547039Y309820*
X547352Y309195*
Y307945*
X547039Y307320*
X546726Y307007*
X546102Y306695*
X545476*
X544852Y307007*
X544539Y307320*
X544226Y307945*
X545250Y108900D02*
Y112650D01*
Y110775D02*
X546187D01*
X548375Y112650*
X546187Y110775D02*
X548375Y108900D01*
X546825Y140789D02*
Y144539D01*
Y142665D02*
X547762D01*
X549950Y144539*
X547762Y142665D02*
X549950Y140789D01*
X548400Y84096D02*
Y87846D01*
Y85972D02*
X549337D01*
X551525Y87846*
X549337Y85972D02*
X551525Y84096D01*
X550762Y226616D02*
Y230366D01*
Y228491D02*
X551699D01*
X553887Y230366*
X551699Y228491D02*
X553887Y226616D01*
X552730Y146301D02*
Y150051D01*
Y148176D02*
X553668D01*
X555856Y150051*
X553668Y148176D02*
X555856Y146301D01*
X553715Y91183D02*
Y94933D01*
Y93058D02*
X554652D01*
X556840Y94933*
X554652Y93058D02*
X556840Y91183D01*
X554226Y297945D02*
Y299195D01*
X554539Y299820*
X554852Y300133*
X555476Y300445*
X556102*
X556726Y300133*
X557039Y299820*
X557352Y299195*
Y297945*
X557039Y297320*
X556726Y297007*
X556102Y296695*
X555476*
X554852Y297007*
X554539Y297320*
X554226Y297945*
Y307945D02*
Y309195D01*
X554539Y309820*
X554852Y310133*
X555476Y310445*
X556102*
X556726Y310133*
X557039Y309820*
X557352Y309195*
Y307945*
X557039Y307320*
X556726Y307007*
X556102Y306695*
X555476*
X554852Y307007*
X554539Y307320*
X554226Y307945*
X554305Y224254D02*
Y228004D01*
Y226129D02*
X555243D01*
X557430Y228004*
X555243Y226129D02*
X557430Y224254D01*
X557061Y117561D02*
Y121311D01*
Y119436D02*
X557998D01*
X560186Y121311*
X557998Y119436D02*
X560186Y117561D01*
X557455Y162443D02*
Y166193D01*
X560580Y162443*
Y166193*
X558242Y250632D02*
Y254382D01*
Y252507D02*
X559180D01*
X561367Y254382*
X559180Y252507D02*
X561367Y250632D01*
X561738Y201419D02*
Y205169D01*
Y203294D02*
X562676D01*
X564863Y205169*
X562676Y203294D02*
X564863Y201419D01*
X563754Y132128D02*
Y135878D01*
Y134003D02*
X564691D01*
X566879Y135878*
X564691Y134003D02*
X566879Y132128D01*
X564226Y297945D02*
Y299195D01*
X564539Y299820*
X564852Y300133*
X565476Y300445*
X566102*
X566726Y300133*
X567039Y299820*
X567352Y299195*
Y297945*
X567039Y297320*
X566726Y297007*
X566102Y296695*
X565476*
X564852Y297007*
X564539Y297320*
X564226Y297945*
Y307945D02*
Y309195D01*
X564539Y309820*
X564852Y310133*
X565476Y310445*
X566102*
X566726Y310133*
X567039Y309820*
X567352Y309195*
Y307945*
X567039Y307320*
X566726Y307007*
X566102Y306695*
X565476*
X564852Y307007*
X564539Y307320*
X564226Y307945*
X570053Y146301D02*
Y150051D01*
Y148176D02*
X570991D01*
X573178Y150051*
X570991Y148176D02*
X573178Y146301D01*
X571234Y221892D02*
Y225642D01*
Y223767D02*
X572172D01*
X574359Y225642*
X572172Y223767D02*
X574359Y221892D01*
X573203Y200632D02*
Y204382D01*
Y202507D02*
X574140D01*
X576328Y204382*
X574140Y202507D02*
X576328Y200632D01*
X573596Y53388D02*
Y57138D01*
Y55263D02*
X574534D01*
X576722Y57138*
X574534Y55263D02*
X576722Y53388D01*
X574226Y297945D02*
Y299195D01*
X574539Y299820*
X574852Y300133*
X575476Y300445*
X576102*
X576726Y300133*
X577039Y299820*
X577352Y299195*
Y297945*
X577039Y297320*
X576726Y297007*
X576102Y296695*
X575476*
X574852Y297007*
X574539Y297320*
X574226Y297945*
Y307945D02*
Y309195D01*
X574539Y309820*
X574852Y310133*
X575476Y310445*
X576102*
X576726Y310133*
X577039Y309820*
X577352Y309195*
Y307945*
X577039Y307320*
X576726Y307007*
X576102Y306695*
X575476*
X574852Y307007*
X574539Y307320*
X574226Y307945*
X575171Y234490D02*
Y238240D01*
Y236365D02*
X576109D01*
X578296Y238240*
X576109Y236365D02*
X578296Y234490D01*
X577140Y160474D02*
Y164224D01*
Y162350D02*
X578077D01*
X580265Y164224*
X578077Y162350D02*
X580265Y160474D01*
X577533Y24648D02*
Y28398D01*
Y26523D02*
X578471D01*
X580659Y28398*
X578471Y26523D02*
X580659Y24648D01*
X580289Y259293D02*
Y263043D01*
Y261169D02*
X581227D01*
X583415Y263043*
X581227Y261169D02*
X583415Y259293D01*
X581077Y272679D02*
Y276429D01*
Y274554D02*
X582014D01*
X584202Y276429*
X582014Y274554D02*
X584202Y272679D01*
X582258Y184096D02*
Y187846D01*
Y185972D02*
X583195D01*
X585383Y187846*
X583195Y185972D02*
X585383Y184096D01*
X584226Y136852D02*
Y140602D01*
X587352Y136852*
Y140602*
X585407Y53388D02*
Y57138D01*
Y55263D02*
X586345D01*
X588533Y57138*
X586345Y55263D02*
X588533Y53388D01*
X587376Y248270D02*
Y252020D01*
Y250145D02*
X588313D01*
X590501Y252020*
X588313Y250145D02*
X590501Y248270D01*
X589344Y53388D02*
Y57138D01*
Y55263D02*
X590282D01*
X592470Y57138*
X590282Y55263D02*
X592470Y53388D01*
X590526Y229372D02*
Y233122D01*
Y231247D02*
X591463D01*
X593651Y233122*
X591463Y231247D02*
X593651Y229372D01*
X591707Y80553D02*
Y84303D01*
Y82428D02*
X592644D01*
X594832Y84303*
X592644Y82428D02*
X594832Y80553D01*
X593675Y99844D02*
Y103594D01*
Y101720D02*
X594613D01*
X596800Y103594*
X594613Y101720D02*
X596800Y99844D01*
X594463Y213230D02*
Y216980D01*
Y215106D02*
X595400D01*
X597588Y216980*
X595400Y215106D02*
X597588Y213230D01*
X596825Y208112D02*
Y211862D01*
Y209987D02*
X597762D01*
X599950Y211862*
X597762Y209987D02*
X599950Y208112D01*
X597219Y53388D02*
Y57138D01*
Y55263D02*
X598156D01*
X600344Y57138*
X598156Y55263D02*
X600344Y53388D01*
X598006Y117561D02*
Y121311D01*
Y119436D02*
X598943D01*
X601131Y121311*
X598943Y119436D02*
X601131Y117561D01*
X601156Y37246D02*
Y40996D01*
Y39121D02*
X602093D01*
X604281Y40996*
X602093Y39121D02*
X604281Y37246D01*
X601549Y102600D02*
Y106350D01*
Y104476D02*
X602487D01*
X604674Y106350*
X602487Y104476D02*
X604674Y102600D01*
X602730Y272285D02*
Y276035D01*
Y274161D02*
X603668D01*
X605856Y276035*
X603668Y274161D02*
X605856Y272285D01*
X604699Y203781D02*
Y207531D01*
Y205657D02*
X605636D01*
X607824Y207531*
X605636Y205657D02*
X607824Y203781D01*
X604699Y217758D02*
Y221508D01*
Y219633D02*
X605636D01*
X607824Y221508*
X605636Y219633D02*
X607824Y217758D01*
X605486Y177797D02*
Y181547D01*
Y179672D02*
X606424D01*
X608611Y181547*
X606424Y179672D02*
X608611Y177797D01*
X605880Y189608D02*
Y193358D01*
Y191483D02*
X606817D01*
X609005Y193358*
X606817Y191483D02*
X609005Y189608D01*
X605880Y259687D02*
Y263437D01*
Y261562D02*
X606817D01*
X609005Y263437*
X606817Y261562D02*
X609005Y259687D01*
X607061Y104175D02*
Y107925D01*
Y106050D02*
X607998D01*
X610186Y107925*
X607998Y106050D02*
X610186Y104175D01*
X608242Y284096D02*
Y287846D01*
Y285972D02*
X609180D01*
X611367Y287846*
X609180Y285972D02*
X611367Y284096D01*
X609030Y53388D02*
Y57138D01*
Y55263D02*
X609967D01*
X612155Y57138*
X609967Y55263D02*
X612155Y53388D01*
X609030Y155750D02*
Y159500D01*
Y157625D02*
X609967D01*
X612155Y159500*
X609967Y157625D02*
X612155Y155750D01*
X609030Y225829D02*
Y229579D01*
Y227704D02*
X609967D01*
X612155Y229579*
X609967Y227704D02*
X612155Y225829D01*
X609030Y233703D02*
Y237453D01*
Y235578D02*
X609967D01*
X612155Y237453*
X609967Y235578D02*
X612155Y233703D01*
X612967Y53388D02*
Y57138D01*
Y55263D02*
X613904D01*
X616092Y57138*
X613904Y55263D02*
X616092Y53388D01*
X620447Y314805D02*
Y318555D01*
Y316680D02*
X621384D01*
X623572Y318555*
X621384Y316680D02*
X623572Y314805D01*
X621234Y289608D02*
Y293358D01*
Y291483D02*
X622172D01*
X624359Y293358*
X622172Y291483D02*
X624359Y289608D01*
X621234Y302207D02*
Y305957D01*
Y304082D02*
X622172D01*
X624359Y305957*
X622172Y304082D02*
X624359Y302207D01*
X629502Y80947D02*
Y84697D01*
Y82822D02*
X630439D01*
X632627Y84697*
X630439Y82822D02*
X632627Y80947D01*
X629502Y92758D02*
Y96508D01*
Y94633D02*
X630439D01*
X632627Y96508*
X630439Y94633D02*
X632627Y92758D01*
X635801Y103388D02*
Y107138D01*
Y105263D02*
X636739D01*
X638926Y107138*
X636739Y105263D02*
X638926Y103388D01*
X641313Y312837D02*
Y316587D01*
X642876Y314712*
X644438Y316587*
Y312837*
X642100Y77010D02*
Y80760D01*
Y78885D02*
X643038D01*
X645226Y80760*
X643038Y78885D02*
X645226Y77010D01*
X643281Y83309D02*
Y87059D01*
Y85184D02*
X644219D01*
X646407Y87059*
X644219Y85184D02*
X646407Y83309D01*
X644856Y64805D02*
Y68555D01*
Y66680D02*
X645794D01*
X647981Y68555*
X645794Y66680D02*
X647981Y64805D01*
X653518Y103388D02*
Y107138D01*
Y105263D02*
X654455D01*
X656643Y107138*
X654455Y105263D02*
X656643Y103388D01*
X654305Y38033D02*
Y41783D01*
X655868Y39909*
X657430Y41783*
Y38033*
X660998Y58506D02*
Y62256D01*
X664123Y58506*
Y62256*
X660998Y66380D02*
Y70130D01*
X664123Y66380*
Y70130*
X660998Y74648D02*
Y78398D01*
X664123Y74648*
Y78398*
X660998Y103388D02*
Y107138D01*
X664123Y103388*
Y107138*
X666116Y85671D02*
Y89421D01*
Y87546D02*
X667054D01*
X669241Y89421*
X667054Y87546D02*
X669241Y85671D01*
D02*
D105*
X15565Y122647D03*
X17140Y107293D03*
X17927Y313592D03*
X22514Y123474D03*
X24307Y85394D03*
X31313Y46663D03*
X40368Y134458D03*
X42337Y25403D03*
X43774Y115994D03*
X47061Y46663D03*
X47848Y119931D03*
X49898Y307835D03*
X51785Y164773D03*
X52967Y221466D03*
X58872Y46663D03*
X62022Y214380D03*
X64384Y79340D03*
X70289Y284065D03*
X71864Y270679D03*
X74226Y277372D03*
X74620Y198238D03*
X79344Y214380D03*
X80132Y143120D03*
X93911Y282096D03*
X95093Y97057D03*
X106510Y58868D03*
X106904Y15403D03*
Y25403D03*
X111234Y110836D03*
X113596Y101781D03*
X121667Y162411D03*
X124226Y189970D03*
X126589Y167135D03*
X132888Y238789D03*
X133675Y15403D03*
Y25403D03*
X141156Y167135D03*
X141943Y306112D03*
X147848Y59261D03*
Y157293D03*
X149593Y239091D03*
X149661Y229091D03*
Y249091D03*
X166352Y258080D03*
X166746Y102175D03*
X169108Y327765D03*
X169187Y234911D03*
Y244911D03*
X176589Y54537D03*
X177770Y299025D03*
X178163Y108868D03*
X179187Y234911D03*
Y244911D03*
X189187Y234911D03*
Y244911D03*
X193911Y47450D03*
X196274Y108868D03*
X197455Y303750D03*
X199187Y234911D03*
Y244911D03*
X204541Y273435D03*
X205329Y182883D03*
X205722Y161230D03*
X209187Y234911D03*
Y244911D03*
X210447Y298848D03*
X214778Y166348D03*
Y290757D03*
X215565Y83277D03*
X219108Y165954D03*
X219502Y236427D03*
X222258Y78946D03*
X227376Y178553D03*
Y184852D03*
X237612Y78946D03*
X238400Y252569D03*
X239187Y236427D03*
X243518Y227765D03*
X244699Y83277D03*
X248242Y311624D03*
X249817Y236427D03*
Y246663D03*
X250604Y67529D03*
X251392Y44694D03*
X253360Y23828D03*
X256116Y195482D03*
Y232883D03*
X257297Y265561D03*
X258085Y222254D03*
Y300206D03*
X258478Y19498D03*
Y45482D03*
X259266Y113986D03*
X262415Y40757D03*
X263596Y169891D03*
X266352Y47450D03*
X267114Y265561D03*
X267533Y141151D03*
X273045Y90364D03*
X273439Y101781D03*
X275407Y39183D03*
Y46269D03*
X276195Y300600D03*
X282100Y47450D03*
X285250Y88395D03*
X286037Y43907D03*
X287219Y108868D03*
X287612Y148631D03*
X288400Y93513D03*
X290762Y97057D03*
X291156Y265954D03*
X291549Y280521D03*
X293518Y300206D03*
X293911Y253750D03*
X295486Y170285D03*
X295880Y177765D03*
X296667Y146269D03*
X297061Y116348D03*
X297848Y47450D03*
Y110443D03*
X300211Y99025D03*
X300604Y222254D03*
X300998Y137608D03*
Y300206D03*
X301392Y186427D03*
Y199025D03*
Y211230D03*
X301785Y26191D03*
Y41939D03*
X306904Y38789D03*
X307691Y168710D03*
X309659Y47450D03*
X311628Y39970D03*
X312809Y251387D03*
X313006Y156899D03*
Y165167D03*
X313596Y119891D03*
X318715Y86820D03*
X319108Y110049D03*
Y144694D03*
Y150600D03*
X319896Y98631D03*
Y199025D03*
X320683Y251387D03*
X322258Y214773D03*
X323439Y271466D03*
X325801Y178159D03*
X326195Y214380D03*
X327376Y233868D03*
X328951Y161230D03*
X329738Y212805D03*
X332888Y81702D03*
X336037Y249025D03*
X337219Y138002D03*
Y199025D03*
X337612Y125797D03*
Y150600D03*
X339581Y260836D03*
X340368Y188789D03*
X341156Y310836D03*
X341549Y212411D03*
X342730Y81702D03*
Y249419D03*
X343124Y93120D03*
X343518Y122647D03*
Y132490D03*
X345093Y201781D03*
Y293907D03*
X345880Y166348D03*
X346274Y269891D03*
X347061Y41939D03*
Y213986D03*
Y248238D03*
X348242Y188395D03*
X349226Y237214D03*
X350801Y160443D03*
X351785Y189576D03*
X352573Y122647D03*
Y248238D03*
X353754Y264380D03*
X354148Y291545D03*
X355329Y186820D03*
X356510Y204931D03*
X356904Y254537D03*
X357297Y159655D03*
X360447Y138002D03*
X361234Y150994D03*
Y263198D03*
X361628Y267529D03*
X362022Y86820D03*
X362415Y202529D03*
X364384Y169498D03*
Y260836D03*
X367140Y225009D03*
X368321Y189576D03*
X368715Y292332D03*
X369108Y169891D03*
X369896Y232096D03*
X370683Y202175D03*
X372733Y34213D03*
X373045Y224222D03*
Y321860D03*
X373439Y209261D03*
Y218710D03*
X374620Y161624D03*
X375014Y230915D03*
Y283277D03*
X376195Y170679D03*
Y186427D03*
X376589Y256899D03*
Y276978D03*
X377770Y309655D03*
X379344Y125797D03*
Y199813D03*
X380132Y110443D03*
X381707Y98631D03*
X382100Y191939D03*
X384069Y143513D03*
X388006Y227372D03*
X388400Y129340D03*
Y215167D03*
X388793Y133474D03*
X389974Y307687D03*
X390762Y188395D03*
X391156Y241545D03*
X392337Y217135D03*
X392665Y294932D03*
X393911Y228159D03*
Y232490D03*
X394699Y42726D03*
X396274Y215954D03*
X397061Y241939D03*
X398792Y77700D03*
Y97700D03*
X398860Y87700D03*
X401785Y242332D03*
X402665Y294864D03*
X402967Y208080D03*
X403360Y230128D03*
X404541Y149025D03*
Y248631D03*
X406116Y212017D03*
X407297Y263198D03*
X408085Y163592D03*
X408478Y113592D03*
Y182883D03*
X409266Y319104D03*
X410841Y146269D03*
Y178946D03*
X411234Y125994D03*
X412665Y294932D03*
X413006Y94694D03*
X413203Y241545D03*
X414778Y161230D03*
X416746Y228159D03*
Y249419D03*
X419266Y319104D03*
X420230Y105718D03*
Y126191D03*
X420880Y181309D03*
X421077Y242332D03*
Y258080D03*
X422258Y36033D03*
X422652Y294932D03*
X423045Y42726D03*
X423439Y190364D03*
X423833Y158080D03*
Y264380D03*
X424226Y87608D03*
X425407Y125797D03*
X426589Y177765D03*
X428163Y258474D03*
X429266Y319104D03*
X429344Y156506D03*
X429738Y33277D03*
X430132Y227372D03*
X430230Y89576D03*
X431313Y222647D03*
X432665Y294932D03*
X435644Y244694D03*
X438006Y192332D03*
X440762Y47450D03*
X441156Y126191D03*
X441549Y169891D03*
X442665Y294932D03*
X442730Y80128D03*
X445486Y318710D03*
X447061Y281702D03*
X447455Y39970D03*
Y70679D03*
X449817Y118317D03*
Y212529D03*
X451392Y125797D03*
X451785Y173041D03*
Y222647D03*
X454148Y317923D03*
X456904Y192332D03*
X458085Y171072D03*
X460250Y42726D03*
X460447Y280521D03*
X463793Y312017D03*
X464187Y69891D03*
X465171Y173828D03*
X465230Y107293D03*
Y127372D03*
X465565Y227529D03*
X467140Y146072D03*
Y164183D03*
X468321Y14380D03*
Y191939D03*
Y212529D03*
X471077Y250600D03*
X471470Y261624D03*
X471864Y222647D03*
X472258Y47450D03*
X473045Y69498D03*
X473833Y316348D03*
X474226Y290757D03*
Y300757D03*
X474620Y231702D03*
X476195Y278946D03*
X476982Y98631D03*
X477770Y37214D03*
X478557Y147450D03*
X480919Y86427D03*
Y234458D03*
X482100Y240364D03*
X483281Y247057D03*
X484069Y202175D03*
X484226Y290757D03*
Y300757D03*
X485250Y186820D03*
X487415Y71466D03*
X488203Y316348D03*
X488400Y133671D03*
X488793Y258080D03*
X491156Y167529D03*
X492730Y71072D03*
Y178159D03*
X493911Y149419D03*
X494226Y290757D03*
Y300757D03*
X495486Y191545D03*
X496274Y101781D03*
Y156899D03*
X497455Y324222D03*
X498242Y176978D03*
X499817Y184458D03*
X501392Y165561D03*
X502967Y217135D03*
X503360Y192332D03*
X503754Y47450D03*
X504226Y290757D03*
Y300757D03*
X504541Y222254D03*
Y232096D03*
X505722Y102175D03*
X506707Y72254D03*
X508478Y165954D03*
Y246663D03*
X509266Y132490D03*
X509659Y258080D03*
X510053Y119104D03*
X512415Y100994D03*
X514226Y290757D03*
Y300757D03*
X516352Y118317D03*
X516746Y130521D03*
Y157293D03*
X520289Y224616D03*
X524226Y213592D03*
Y258868D03*
Y290757D03*
Y300757D03*
X524620Y200994D03*
X525014Y173828D03*
Y236033D03*
X525407Y247450D03*
X530132Y169104D03*
X534226Y290757D03*
Y300757D03*
X535250Y102962D03*
X536825Y134852D03*
X538400Y78159D03*
X540762Y220679D03*
X542730Y140364D03*
X543715Y85246D03*
X544226Y290757D03*
Y300757D03*
X544305Y218317D03*
X547061Y111624D03*
X547455Y156506D03*
X548242Y244694D03*
X551738Y195482D03*
X553754Y126191D03*
X554226Y290757D03*
Y300757D03*
X560053Y140364D03*
X561234Y215954D03*
X563203Y194694D03*
X563596Y47450D03*
X564226Y290757D03*
Y300757D03*
X565171Y228553D03*
X567140Y154537D03*
X567533Y18710D03*
X570289Y253356D03*
X571077Y266742D03*
X572258Y178159D03*
X574226Y130915D03*
X575407Y47450D03*
X577376Y242332D03*
X579344Y47450D03*
X580526Y223435D03*
X581707Y74616D03*
X583675Y93907D03*
X584463Y207293D03*
X586825Y202175D03*
X587219Y47450D03*
X588006Y111624D03*
X591156Y31309D03*
X591549Y96663D03*
X592730Y266348D03*
X594699Y197844D03*
Y211820D03*
X595486Y171860D03*
X595880Y183671D03*
Y253750D03*
X597061Y98238D03*
X598242Y278159D03*
X599030Y47450D03*
Y149813D03*
Y219891D03*
Y227765D03*
X602967Y47450D03*
X610447Y308868D03*
X611234Y283671D03*
Y296269D03*
X619502Y75009D03*
Y86820D03*
X625801Y97450D03*
X631313Y306899D03*
X632100Y71072D03*
X633281Y77372D03*
X634856Y58868D03*
X643518Y97450D03*
X644305Y32096D03*
X650998Y52569D03*
Y60443D03*
Y68710D03*
Y97450D03*
X656116Y79734D03*
X0Y0D02*
M02*
