G04 EasyPC Gerber Version 21.0.3 Build 4286 *
G04 #@! TF.Part,Single*
G04 #@! TF.FileFunction,Paste,Top *
G04 #@! TF.FilePolarity,Positive *
%FSLAX35Y35*%
%MOIN*%
G04 #@! TA.AperFunction,SMDPad*
%ADD154R,0.00581X0.04124*%
%ADD166R,0.01959X0.06290*%
%ADD142R,0.02353X0.12392*%
%ADD148R,0.02550X0.02943*%
%ADD170R,0.03337X0.10620*%
%ADD149R,0.04200X0.08200*%
%ADD146R,0.04518X0.05306*%
%ADD160R,0.07274X0.11408*%
%ADD151R,0.07274X0.21054*%
%ADD143R,0.14557X0.19085*%
%ADD159R,0.14754X0.20660*%
%ADD171R,0.21250X0.22825*%
%ADD158R,0.26959X0.42707*%
%ADD152R,0.04124X0.04124*%
G04 #@! TD.AperFunction*
%ADD98C,0.01200*%
G04 #@! TA.AperFunction,SMDPad*
%ADD153R,0.04124X0.00581*%
%ADD169R,0.03337X0.01172*%
%ADD156R,0.06100X0.01500*%
%ADD167R,0.03534X0.01565*%
%ADD165R,0.07200X0.01600*%
%ADD163R,0.04124X0.01762*%
%ADD155R,0.04400X0.01900*%
%ADD168R,0.05404X0.01959*%
%ADD164R,0.03337X0.02156*%
%ADD144R,0.12392X0.02353*%
%ADD157R,0.07904X0.03613*%
%ADD161R,0.15148X0.04321*%
%ADD147R,0.05306X0.04518*%
%ADD162R,0.12786X0.05699*%
%ADD150R,0.13573X0.08061*%
%ADD145R,0.19085X0.14557*%
X0Y0D02*
D02*
D98*
X2573Y600D02*
X663990D01*
Y332096*
X2573*
Y600*
D02*
D142*
X31313Y55718D03*
X35250D03*
X39187D03*
X43124D03*
X47061D03*
X50998D03*
X54935D03*
X58872D03*
X185841Y56506D03*
X193715D03*
X250604D03*
X254541D03*
X258478D03*
X262415D03*
X266352D03*
X270289D03*
X274226D03*
X278163D03*
X282100D03*
X286037D03*
X289974D03*
X293911D03*
X297848D03*
X301785D03*
X305722D03*
X309659D03*
X313596D03*
X317533D03*
X321470D03*
X325407D03*
X413006Y56446D03*
X416943D03*
X420880D03*
X424817D03*
X428754D03*
X432691D03*
X436628D03*
X440565D03*
X444502D03*
X448439D03*
X452376D03*
X456313D03*
X460250D03*
X464187D03*
X468124D03*
X472061D03*
X475998D03*
X479935D03*
X483872D03*
X487809D03*
X491746D03*
X495683D03*
X499620D03*
X503557D03*
X559659Y56506D03*
X563596D03*
X567533D03*
X571470D03*
X575407D03*
X579344D03*
X583281D03*
X587219D03*
X591156D03*
X595093D03*
X599030D03*
X602967D03*
D02*
D143*
X13400Y21072D03*
X76982D03*
X164187Y21860D03*
X211234D03*
X233478D03*
X343518D03*
X395683Y21801D03*
X521667D03*
X542730Y21860D03*
X621077D03*
D02*
D144*
X608085Y141742D03*
Y149616D03*
Y211820D03*
Y219694D03*
Y227569D03*
Y235443D03*
D02*
D145*
X642730Y120088D03*
Y167135D03*
Y190167D03*
Y252962D03*
D02*
D146*
X9856Y139970D03*
X17337D03*
X40171D03*
X47652D03*
X64187Y84852D03*
Y97057D03*
X66943Y214380D03*
X71667Y84852D03*
Y97057D03*
X74423Y214380D03*
X114187Y80915D03*
X114974Y38395D03*
X121667Y80915D03*
X122455Y38395D03*
X148045Y305718D03*
X155526D03*
X183872Y108868D03*
X188990Y273828D03*
X191352Y108868D03*
X196470Y273828D03*
X216156Y255718D03*
X218911Y311624D03*
X219305Y299025D03*
X223636Y255718D03*
X226392Y311624D03*
X226785Y299025D03*
X235447Y311624D03*
X242927D03*
X244502Y100994D03*
X251982D03*
X255919Y200994D03*
Y238395D03*
X259069Y89183D03*
Y100994D03*
X263400Y200994D03*
Y238395D03*
X266549Y89183D03*
Y100994D03*
X293537Y305718D03*
X296470Y280521D03*
X296864Y265954D03*
X301018Y305718D03*
X303951Y280521D03*
X304344Y265954D03*
X305526Y99025D03*
Y149813D03*
X305919Y86820D03*
Y110443D03*
Y125403D03*
Y137608D03*
X306707Y174222D03*
X307100Y186427D03*
Y199025D03*
Y211230D03*
X313006Y99025D03*
Y149813D03*
X313400Y86820D03*
Y110443D03*
Y125403D03*
Y137608D03*
X314187Y174222D03*
X314581Y186427D03*
Y199025D03*
Y211230D03*
X324030Y125797D03*
X324423Y138002D03*
Y150600D03*
X324817Y98631D03*
Y110049D03*
X325211Y87214D03*
X327573Y254931D03*
X328360Y267135D03*
X330329Y290364D03*
X331510Y125797D03*
X331904Y138002D03*
Y150600D03*
X332297Y98631D03*
Y110049D03*
X332691Y87214D03*
X335053Y254931D03*
X335841Y267135D03*
X337809Y290364D03*
X341746Y254931D03*
X342927Y98631D03*
Y110443D03*
X343321Y138002D03*
Y150600D03*
X349226Y254931D03*
X350407Y98631D03*
Y110443D03*
X350801Y138002D03*
Y150600D03*
X366549Y98631D03*
Y110443D03*
Y125797D03*
Y150994D03*
X366943Y86820D03*
Y138002D03*
X374030Y98631D03*
Y110443D03*
Y125797D03*
Y150994D03*
X374423Y86820D03*
Y138002D03*
X383478Y267529D03*
Y278553D03*
X390565Y145876D03*
X390959Y267529D03*
Y278553D03*
X396077Y112805D03*
X398045Y145876D03*
X403557Y112805D03*
X436628Y250206D03*
X437022Y261624D03*
X443321Y192332D03*
X444108Y250206D03*
X444502Y261624D03*
X450801Y192332D03*
X457494Y250600D03*
X457888Y261624D03*
X463793Y322647D03*
X464974Y250600D03*
X465368Y261624D03*
X471274Y322647D03*
X480722D03*
X483085Y110443D03*
Y125009D03*
Y155718D03*
X483478Y139576D03*
X487415Y79734D03*
X487809Y91545D03*
X488203Y322647D03*
X490565Y110443D03*
Y125009D03*
Y155718D03*
X490959Y139576D03*
X494896Y79734D03*
Y258080D03*
X495289Y91545D03*
Y246663D03*
X502376Y258080D03*
X502770Y246663D03*
X503163Y124616D03*
X503557Y110049D03*
Y154931D03*
X503951Y139183D03*
Y323041D03*
X506707Y79340D03*
Y91545D03*
X510644Y124616D03*
X511037Y110049D03*
Y154931D03*
X511431Y139183D03*
Y323041D03*
X514187Y79340D03*
Y91545D03*
X521667Y91151D03*
Y102962D03*
Y128159D03*
X522061Y79734D03*
Y116348D03*
X522848Y322647D03*
X525604Y224616D03*
X526785Y141545D03*
Y153750D03*
X529148Y91151D03*
Y102962D03*
Y128159D03*
Y213592D03*
X529541Y79734D03*
Y116348D03*
X530329Y322647D03*
X530526Y200994D03*
X531116Y236033D03*
Y247450D03*
Y258868D03*
X533085Y224616D03*
X534266Y141545D03*
Y153750D03*
X536234Y91151D03*
X536628Y213592D03*
X538006Y200994D03*
X538596Y236033D03*
Y247450D03*
Y258868D03*
X543715Y91151D03*
X547258Y140364D03*
X554738D03*
X556313Y75009D03*
Y97844D03*
X556707Y86820D03*
X557888Y253356D03*
Y266742D03*
X558281Y171860D03*
X562219Y184458D03*
X563793Y75009D03*
Y97844D03*
X564187Y86820D03*
X565368Y253356D03*
Y266742D03*
X565762Y171860D03*
X569699Y184458D03*
X570880Y97844D03*
X571274Y86820D03*
X572455Y111624D03*
X574817Y143120D03*
Y154537D03*
X578360Y97844D03*
X578754Y86820D03*
X579148Y253750D03*
Y266348D03*
X579935Y111624D03*
X582297Y143120D03*
Y154537D03*
Y171860D03*
Y183671D03*
X586628Y253750D03*
Y266348D03*
X588163Y87214D03*
X588557Y75009D03*
X589778Y171860D03*
Y183671D03*
X595644Y87214D03*
X596037Y75009D03*
X597652Y308868D03*
X598045Y283671D03*
Y296269D03*
X604305Y86820D03*
X604344Y75009D03*
X605132Y308868D03*
X605526Y283671D03*
Y296269D03*
X611785Y86820D03*
X611825Y75009D03*
X630722Y97450D03*
X638203D03*
D02*
D147*
X326195Y186230D03*
Y193710D03*
X338006Y172450D03*
Y179931D03*
X349817Y172450D03*
Y179931D03*
X361234Y297254D03*
Y304734D03*
X369108Y176387D03*
Y183868D03*
X467140Y151387D03*
Y158868D03*
D02*
D148*
X306904Y222254D03*
X313990D03*
D02*
D149*
X258178Y290644D03*
X267278D03*
X276378D03*
D02*
D150*
X267278Y315045D03*
D02*
D151*
X281313Y200893D03*
Y238294D03*
D02*
D152*
X346274Y274813D03*
Y283080D03*
X364778Y275206D03*
Y283474D03*
D02*
D153*
X334713Y204340D03*
Y206309D03*
Y208277D03*
Y210246D03*
Y212214D03*
Y214183D03*
Y216151D03*
Y218120D03*
Y220088D03*
Y222057D03*
Y224025D03*
Y225994D03*
Y227962D03*
Y229931D03*
Y231899D03*
Y233868D03*
X381256Y204340D03*
Y206309D03*
Y208277D03*
Y210246D03*
Y212214D03*
Y214183D03*
Y216151D03*
Y218120D03*
Y220088D03*
Y222057D03*
Y224025D03*
Y225994D03*
Y227962D03*
Y229931D03*
Y231899D03*
Y233868D03*
D02*
D154*
X343321Y195832D03*
Y242476D03*
X345289Y195832D03*
Y242476D03*
X347258Y195832D03*
Y242476D03*
X349226Y195832D03*
Y242476D03*
X351195Y195832D03*
Y242476D03*
X353163Y195832D03*
Y242476D03*
X355132Y195832D03*
Y242476D03*
X357100Y195832D03*
Y242476D03*
X359069Y195832D03*
Y242476D03*
X361037Y195832D03*
Y242476D03*
X363006Y195832D03*
Y242476D03*
X364974Y195832D03*
Y242476D03*
X366943Y195832D03*
Y242476D03*
X368911Y195832D03*
Y242476D03*
X370880Y195832D03*
Y242476D03*
X372848Y195832D03*
Y242476D03*
D02*
D155*
X182671Y288848D03*
Y293848D03*
Y298848D03*
Y303848D03*
X202671Y288848D03*
Y293848D03*
Y298848D03*
Y303848D03*
D02*
D156*
X437255Y202529D03*
Y207529D03*
Y212529D03*
Y217529D03*
Y222529D03*
Y227529D03*
Y232529D03*
X457655Y202529D03*
Y207529D03*
Y212529D03*
Y217529D03*
Y222529D03*
Y227529D03*
Y232529D03*
X490011Y202135D03*
Y207135D03*
Y212135D03*
Y217135D03*
Y222135D03*
Y227135D03*
Y232135D03*
X510411Y202135D03*
Y207135D03*
Y212135D03*
Y217135D03*
Y222135D03*
Y227135D03*
Y232135D03*
D02*
D157*
X60053Y257293D03*
Y263986D03*
Y270679D03*
Y277372D03*
Y284065D03*
D02*
D158*
X18459Y270226D03*
D02*
D159*
X12789Y180128D03*
X51766D03*
D02*
D160*
X13990Y221466D03*
X42337D03*
X91156Y226978D03*
X119502D03*
D02*
D161*
X92730Y296663D03*
X127770D03*
D02*
D162*
X92730Y189970D03*
X112415D03*
D02*
D163*
X27573Y116151D03*
Y119891D03*
Y123631D03*
X37415Y116151D03*
Y119891D03*
Y123631D03*
D02*
D164*
X113990Y59065D03*
Y66545D03*
X123439Y62805D03*
D02*
D165*
X540904Y111604D03*
Y116604D03*
Y121604D03*
Y126604D03*
X560304Y111604D03*
Y116604D03*
Y121604D03*
Y126604D03*
D02*
D166*
X420230Y97943D03*
Y135541D03*
X425230Y97943D03*
Y135541D03*
X430230Y97943D03*
Y135541D03*
X435230Y97943D03*
Y135541D03*
X440230Y97943D03*
Y135541D03*
X445230Y97943D03*
Y135541D03*
X450230Y97943D03*
Y135541D03*
X455230Y97943D03*
Y135541D03*
X460230Y97943D03*
Y135541D03*
X465230Y97943D03*
Y135541D03*
D02*
D167*
X394699Y125994D03*
Y129734D03*
Y133474D03*
X404935Y125994D03*
Y133474D03*
D02*
D168*
X551738Y201998D03*
Y206998D03*
Y211998D03*
Y216998D03*
Y221998D03*
Y226998D03*
Y231998D03*
Y236998D03*
X573093Y201998D03*
Y206998D03*
Y211998D03*
Y216998D03*
Y221998D03*
Y226998D03*
Y231998D03*
Y236998D03*
D02*
D169*
X641746Y77175D03*
Y79734D03*
Y82293D03*
X649226Y77175D03*
Y79734D03*
Y82293D03*
D02*
D170*
X89797Y124714D03*
X98813D03*
X107829D03*
X239797Y126289D03*
X248813D03*
X257829D03*
D02*
D171*
X98813Y151289D03*
X248813Y152864D03*
X0Y0D02*
M02*
