G04 EasyPC Gerber Version 21.0.3 Build 4286 *
G04 #@! TF.Part,Single*
G04 #@! TF.FileFunction,Copper,L4,Bot *
G04 #@! TF.FilePolarity,Positive *
%FSLAX35Y35*%
%MOIN*%
G04 #@! TA.AperFunction,ComponentPad*
%ADD85R,0.06000X0.06000*%
%ADD81R,0.06496X0.06496*%
G04 #@! TD.AperFunction*
%ADD90C,0.00591*%
%ADD88C,0.00984*%
%ADD13C,0.01200*%
%ADD89C,0.01969*%
G04 #@! TA.AperFunction,ViaPad*
%ADD86C,0.02362*%
G04 #@! TA.AperFunction,ComponentPad*
%ADD79C,0.03937*%
G04 #@! TA.AperFunction,ViaPad*
%ADD91C,0.04724*%
G04 #@! TA.AperFunction,ComponentPad*
%ADD84C,0.05906*%
%ADD83C,0.06000*%
%ADD80C,0.06299*%
%ADD82C,0.06496*%
G04 #@! TA.AperFunction,ViaPad*
%ADD87C,0.07874*%
G04 #@! TA.AperFunction,WasherPad*
%ADD78C,0.15748*%
%ADD77C,0.27559*%
X0Y0D02*
D02*
D13*
X2573Y600D02*
X663990D01*
Y332096*
X2573*
Y600*
D02*
D77*
X24307Y85394D03*
X372733Y34213D03*
X631313Y306899D03*
X644305Y32096D03*
D02*
D78*
X49898Y307835D03*
X341156Y310836D03*
D02*
D79*
X17927Y313592D03*
X51785Y164773D03*
X52967Y221466D03*
X70289Y284065D03*
X71864Y270679D03*
X74226Y277372D03*
X74620Y198238D03*
X93911Y282096D03*
X124226Y189970D03*
X132888Y238789D02*
Y213592D01*
X147848Y198631*
Y157293*
X132888Y238789D03*
X147848Y59261D02*
Y10443D01*
X151785Y6506*
X461234*
X468321Y13592*
Y14380*
X147848Y59261D03*
Y157293D03*
X258085Y300206D03*
X276195Y300600D03*
X286037Y43907D03*
X312809Y251387D03*
X320683D03*
X410841Y146269D03*
X468321Y14380D03*
X547455Y156506D03*
X574226Y130915D03*
X650998Y52569D03*
Y60443D03*
Y68710D03*
Y97450D03*
D02*
D80*
X80132Y143120D03*
X392665Y294932D03*
X402665Y294864D03*
X409266Y319104D03*
X412665Y294932D03*
X419266Y319104D03*
X422652Y294932D03*
X429266Y319104D03*
X432665Y294932D03*
X442665D03*
D02*
D81*
X474226Y290757D03*
D02*
D82*
X169187Y234911D03*
Y244911D03*
X179187Y234911D03*
Y244911D03*
X189187Y234911D03*
Y244911D03*
X199187Y234911D03*
Y244911D03*
X209187Y234911D03*
Y244911D03*
X474226Y300757D03*
X484226Y290757D03*
Y300757D03*
X494226Y290757D03*
Y300757D03*
X504226Y290757D03*
Y300757D03*
X514226Y290757D03*
Y300757D03*
X524226Y290757D03*
Y300757D03*
X534226Y290757D03*
Y300757D03*
X544226Y290757D03*
Y300757D03*
X554226Y290757D03*
Y300757D03*
X564226Y290757D03*
Y300757D03*
D02*
D83*
X257297Y265561D03*
X267114D03*
D02*
D84*
X149593Y239091D03*
X149661Y229091D03*
Y249091D03*
X398792Y77700D03*
Y97700D03*
X398860Y87700D03*
D02*
D85*
X106904Y15403D03*
Y25403D03*
X133675Y15403D03*
Y25403D03*
D02*
D86*
X15565Y122647D03*
X17140Y107293D03*
X22514Y123474D03*
X31313Y46663D03*
X40368Y134458D03*
X42337Y25403D03*
X43774Y115994D03*
X47061Y46663D03*
X47848Y119931D03*
X58872Y46663D03*
X62022Y214380D03*
X64384Y79340D03*
X79344Y214380D03*
X95093Y97057D03*
X106510Y58868D03*
X113596Y101781D03*
X121667Y162411D03*
X126589Y167135D03*
X141156D03*
X141943Y306112D03*
X166352Y258080D03*
X166746Y102175D03*
X169108Y327765D03*
X176589Y54537D03*
X177770Y299025D03*
X178163Y108868D03*
X193911Y47450D03*
X196274Y108868D03*
X197455Y303750D03*
X204541Y273435D03*
X205329Y182883D03*
X205722Y161230D03*
X210447Y298848D03*
X214778Y166348D03*
Y290757D03*
X215565Y83277D03*
X219108Y165954D03*
X219502Y236427D03*
X222258Y78946D03*
X227376Y178553D03*
Y184852D03*
X237612Y78946D03*
X238400Y252569D03*
X239187Y236427D03*
X243518Y227765D03*
X244699Y83277D03*
X248242Y311624D03*
X249817Y236427D03*
Y246663D03*
X250604Y67529D03*
X251392Y44694D03*
X253360Y23828D03*
X256116Y195482D03*
Y232883D03*
X258085Y222254D03*
X258478Y19498D03*
Y45482D03*
X262415Y40757D03*
X263596Y169891D03*
X266352Y47450D03*
X267533Y141151D03*
X273045Y90364D03*
X273439Y101781D03*
X275407Y39183D03*
Y46269D03*
X282100Y47450D03*
X287219Y108868D03*
X287612Y148631D03*
X288400Y93513D03*
X290762Y97057D03*
X291156Y265954D03*
X291549Y280521D03*
X293518Y300206D03*
X293911Y253750D03*
X295486Y170285D03*
X295880Y177765D03*
X296667Y146269D03*
X297061Y116348D03*
X297848Y47450D03*
Y110443D03*
X300211Y99025D03*
X300604Y222254D03*
X300998Y137608D03*
Y300206D03*
X301392Y186427D03*
Y199025D03*
Y211230D03*
X301785Y26191D03*
Y41939D03*
X306904Y38789D03*
X307691Y168710D03*
X309659Y47450D03*
X311628Y39970D03*
X313006Y156899D03*
Y165167D03*
X313596Y119891D03*
X318715Y86820D03*
X319108Y110049D03*
Y144694D03*
Y150600D03*
X319896Y98631D03*
Y199025D03*
X322258Y214773D03*
X323439Y271466D03*
X325801Y178159D03*
X326195Y214380D03*
X327376Y233868D03*
X328951Y161230D03*
X329738Y212805D03*
X332888Y81702D03*
X336037Y249025D03*
X337219Y138002D03*
Y199025D03*
X337612Y125797D03*
Y150600D03*
X339581Y260836D03*
X340368Y188789D03*
X341549Y212411D03*
X342730Y81702D03*
Y249419D03*
X343124Y93120D03*
X343518Y122647D03*
Y132490D03*
X345093Y201781D03*
Y293907D03*
X345880Y166348D03*
X346274Y269891D03*
X347061Y41939D03*
Y213986D03*
X348242Y188395D03*
X349226Y237214D03*
X350801Y160443D03*
X351785Y189576D03*
X352573Y122647D03*
X353754Y264380D03*
X354148Y291545D03*
X355329Y186820D03*
X356510Y204931D03*
X357297Y159655D03*
X360447Y138002D03*
X361234Y150994D03*
Y263198D03*
X361628Y267529D03*
X362022Y86820D03*
X362415Y202529D03*
X364384Y169498D03*
X367140Y225009D03*
X368321Y189576D03*
X368715Y292332D03*
X369108Y169891D03*
X369896Y232096D03*
X370683Y202175D03*
X373045Y224222D03*
Y321860D03*
X373439Y209261D03*
Y218710D03*
X374620Y161624D03*
X375014Y230915D03*
Y283277D03*
X376195Y170679D03*
Y186427D03*
X376589Y256899D03*
Y276978D03*
X377770Y309655D03*
X379344Y125797D03*
Y199813D03*
X380132Y110443D03*
X381707Y98631D03*
X382100Y191939D03*
X384069Y143513D03*
X388006Y227372D03*
X388400Y129340D03*
X388793Y133474D03*
X389974Y307687D03*
X390762Y188395D03*
X391156Y241545D03*
X392337Y217135D03*
X393911Y228159D03*
Y232490D03*
X394699Y42726D03*
X396274Y215954D03*
X397061Y241939D03*
X401785Y242332D03*
X402967Y208080D03*
X403360Y230128D03*
X404541Y149025D03*
Y248631D03*
X406116Y212017D03*
X407297Y263198D03*
X408085Y163592D03*
X408478Y113592D03*
Y182883D03*
X410841Y178946D03*
X411234Y125994D03*
X413006Y94694D03*
X413203Y241545D03*
X414778Y161230D03*
X416746Y228159D03*
Y249419D03*
X420230Y105718D03*
Y126191D03*
X420880Y181309D03*
X421077Y242332D03*
Y258080D03*
X422258Y36033D03*
X423045Y42726D03*
X423439Y190364D03*
X423833Y158080D03*
Y264380D03*
X424226Y87608D03*
X425407Y125797D03*
X426589Y177765D03*
X428163Y258474D03*
X429344Y156506D03*
X429738Y33277D03*
X430132Y227372D03*
X430230Y89576D03*
X431313Y222647D03*
X435644Y244694D03*
X438006Y192332D03*
X440762Y47450D03*
X441156Y126191D03*
X441549Y169891D03*
X442730Y80128D03*
X445486Y318710D03*
X447061Y281702D03*
X447455Y39970D03*
Y70679D03*
X449817Y118317D03*
Y212529D03*
X451392Y125797D03*
X451785Y173041D03*
Y222647D03*
X454148Y317923D03*
X456904Y192332D03*
X458085Y171072D03*
X460250Y42726D03*
X460447Y280521D03*
X463793Y312017D03*
X464187Y69891D03*
X465171Y173828D03*
X465230Y107293D03*
Y127372D03*
X465565Y227529D03*
X467140Y146072D03*
Y164183D03*
X468321Y191939D03*
Y212529D03*
X471077Y250600D03*
X471470Y261624D03*
X471864Y222647D03*
X472258Y47450D03*
X473045Y69498D03*
X473833Y316348D03*
X474620Y231702D03*
X476195Y278946D03*
X476982Y98631D03*
X477770Y37214D03*
X478557Y147450D03*
X480919Y86427D03*
Y234458D03*
X482100Y240364D03*
X483281Y247057D03*
X484069Y202175D03*
X485250Y186820D03*
X487415Y71466D03*
X488203Y316348D03*
X488400Y133671D03*
X488793Y258080D03*
X491156Y167529D03*
X492730Y71072D03*
Y178159D03*
X493911Y149419D03*
X495486Y191545D03*
X496274Y101781D03*
Y156899D03*
X497455Y324222D03*
X498242Y176978D03*
X499817Y184458D03*
X501392Y165561D03*
X502967Y217135D03*
X503360Y192332D03*
X503754Y47450D03*
X504541Y222254D03*
Y232096D03*
X505722Y102175D03*
X506707Y72254D03*
X508478Y165954D03*
Y246663D03*
X509266Y132490D03*
X509659Y258080D03*
X510053Y119104D03*
X512415Y100994D03*
X516352Y118317D03*
X516746Y130521D03*
Y157293D03*
X520289Y224616D03*
X524226Y213592D03*
Y258868D03*
X524620Y200994D03*
X525014Y173828D03*
Y236033D03*
X525407Y247450D03*
X530132Y169104D03*
X535250Y102962D03*
X536825Y134852D03*
X538400Y78159D03*
X540762Y220679D03*
X542730Y140364D03*
X543715Y85246D03*
X544305Y218317D03*
X547061Y111624D03*
X548242Y244694D03*
X551738Y195482D03*
X553754Y126191D03*
X560053Y140364D03*
X561234Y215954D03*
X563203Y194694D03*
X563596Y47450D03*
X565171Y228553D03*
X567140Y154537D03*
X567533Y18710D03*
X570289Y253356D03*
X571077Y266742D03*
X572258Y178159D03*
X575407Y47450D03*
X577376Y242332D03*
X579344Y47450D03*
X580526Y223435D03*
X581707Y74616D03*
X583675Y93907D03*
X584463Y207293D03*
X586825Y202175D03*
X587219Y47450D03*
X588006Y111624D03*
X591156Y31309D03*
X591549Y96663D03*
X592730Y266348D03*
X594699Y197844D03*
Y211820D03*
X595486Y171860D03*
X595880Y183671D03*
Y253750D03*
X597061Y98238D03*
X598242Y278159D03*
X599030Y47450D03*
Y149813D03*
Y219891D03*
Y227765D03*
X602967Y47450D03*
X610447Y308868D03*
X611234Y283671D03*
Y296269D03*
X619502Y75009D03*
Y86820D03*
X625801Y97450D03*
X632100Y71072D03*
X633281Y77372D03*
X634856Y58868D03*
X643518Y97450D03*
X656116Y79734D03*
D02*
D87*
X111234Y110836D03*
X259266Y113986D03*
D02*
D88*
X17140Y107293D02*
Y121072D01*
X15565Y122647*
X42337Y25403D02*
X106904D01*
X113596Y101781D02*
X166746D01*
Y102175*
X121667Y162411D02*
Y173041D01*
X130526Y181899*
Y201584*
X121667Y210443*
Y319104*
X126392Y323828*
X308478*
X320683Y311624*
Y302175*
X328951Y293907*
X345093*
X126589Y167135D02*
X141156D01*
X166352Y258080D02*
X158085Y249813D01*
Y123828*
X159659Y122254*
X217533*
X222258Y117529*
X236431*
X238400Y115561*
Y109261*
X239974Y107687*
X286037*
X287219Y108868*
X176589Y54537D02*
Y19891D01*
X182494Y13986*
X451785*
X458478Y20679*
X478557*
X486431Y12805*
X613990*
X620289Y19104*
Y64380*
X624226Y68317*
Y91939*
X620289Y95876*
Y188789*
X614384Y194694*
X563203*
X199187Y244911D02*
Y250364D01*
X201392Y252569*
X218715*
X222258Y249025*
Y187214*
X224620Y184852*
X227376*
X205722Y161230D02*
X258872D01*
X263596Y165954*
Y169891*
X210447Y298848D02*
Y288002D01*
X212022Y286427*
X223833*
X225014Y285246*
Y190757*
X230919Y184852*
Y173435*
X228557Y171072*
X219108*
X214778Y166742*
Y166348*
Y290757D02*
X225407D01*
X228951Y287214*
Y191151*
X233675Y186427*
Y169104*
X230526Y165954*
X219108*
X227376Y178553D02*
X224226D01*
X220289Y174616*
X202967*
X199187Y178395*
Y234911*
X237612Y78946D02*
X222258D01*
X244699Y83277D02*
X215565D01*
X249817Y236427D02*
X239187D01*
X249817Y246663D02*
X238006D01*
X235644Y244301*
Y195876*
X242337Y189183*
X269108*
X277770Y180521*
Y156899*
X279344Y155324*
Y121860*
X285250Y115954*
X296667*
X297061Y116348*
X250604Y67529D02*
X287219D01*
X290762Y71072*
Y91151*
X288400Y93513*
X251392Y44694D02*
Y25797D01*
X253360Y23828*
X258478Y19498D02*
Y45482D01*
X267533Y141151D02*
Y177765D01*
X260447Y184852*
X238793*
X232100Y191545*
Y273041*
X234463Y275403*
X281707*
X285250Y271860*
Y251781*
X288793Y248238*
X297061*
X305722Y256899*
X342730*
X345486Y254143*
X356510*
X356904Y254537*
X275407Y39183D02*
X292337D01*
X293518Y40364*
Y106112*
X297848Y110443*
X290762Y97057D02*
X139974D01*
X132888Y89970*
X102179*
X95093Y97057*
X295486Y170285D02*
X298636D01*
X301785Y173435*
X315565*
X322652Y180521*
Y190364*
X325014Y192726*
X359659*
X361234Y191151*
Y186820*
X362809Y185246*
X375014*
X376195Y186427*
X295880Y177765D02*
X314778D01*
X320683Y183671*
Y192289*
X324226Y195832*
X362065*
X368321Y189576*
X301785Y26191D02*
Y41939D01*
X306904Y38789D02*
Y27372D01*
X312415Y21860*
X322652*
X327376Y26584*
Y38002*
X334069Y44694*
X341156*
X348242Y51781*
Y145088*
X342730Y150600*
X337612*
X311628Y39970D02*
X320486D01*
X324817Y44301*
Y104340*
X319108Y110049*
X313006Y165167D02*
Y156899D01*
X322258Y214773D02*
Y210836D01*
X318321Y206899*
X292337*
X281707Y196269*
Y145876*
X285644Y141939*
X339974*
X341549Y140364*
Y136820*
X338793Y134065*
Y130521*
X342337Y126978*
Y123828*
X343518Y122647*
X326195Y214380D02*
Y210836D01*
X320289Y204931*
X294305*
X288006Y198631*
Y149025*
X287612Y148631*
X327376Y233868D02*
X304738D01*
X300604Y229734*
Y222254*
X329738Y212805D02*
Y204931D01*
X327376Y202569*
X296274*
X290762Y197057*
Y154537*
X293124Y152175*
Y149813*
X296667Y146269*
X336037Y249025D02*
X330132D01*
X327376Y246269*
Y233868*
X337219Y199025D02*
X319896D01*
X339581Y260836D02*
X297455D01*
X293911Y257293*
Y253750*
X340368Y188789D02*
Y168710D01*
X338006Y166348*
X326589*
X324226Y163986*
Y147844*
X321077Y144694*
X319108*
X342730Y81702D02*
X338793D01*
X337612Y82883*
Y125797*
X347061Y41939D02*
X336037D01*
X329344Y35246*
Y25009*
X323439Y19104*
X269108*
X262415Y25797*
Y40757*
X347061Y213986D02*
X348242D01*
X348636Y213592*
X363596*
X367140Y217135*
X373439*
Y218710*
X348242Y188395D02*
Y168710D01*
X345880Y166348*
X351785Y189576D02*
Y160443D01*
X350801*
X352573Y122647D02*
X358085D01*
X362415Y118317*
X382888*
X387612Y113592*
Y104537*
X381707Y98631*
X355329Y186820D02*
Y161624D01*
X357297Y159655*
X356510Y204931D02*
X343124D01*
X337219Y199025*
X362415Y202529D02*
Y208080D01*
X366746Y212411*
X389187*
X390762Y210836*
X400998*
X405329Y215167*
X447179*
X449817Y212529*
X364384Y169498D02*
Y160069D01*
X360841Y156525*
X333656*
X328951Y161230*
X364384Y260836D02*
X404935D01*
X407297Y263198*
X367140Y225009D02*
Y223828D01*
X364778Y221466*
X321470*
X319502Y219498*
X265959*
X259659Y225797*
X245486*
X243518Y227765*
X368715Y292332D02*
X354935D01*
X354148Y291545*
X369896Y232096D02*
X329148D01*
X327376Y233868*
X373045Y224222D02*
X371077D01*
X364384Y217529*
X262022*
X258085Y221466*
Y222254*
X373045Y321860D02*
X352179D01*
X349817Y324222*
X323439*
X319896Y327765*
X169108*
X373439Y209261D02*
Y206899D01*
X375407Y204931*
Y193513*
X380132Y188789*
Y184065*
X383281Y180915*
Y149419*
X378163Y144301*
X362022*
X360447Y142726*
Y138002*
X376195Y170679D02*
Y163198D01*
X374620Y161624*
X376589Y256899D02*
X352967D01*
X350211Y259655*
Y291939*
X352179Y293907*
Y296269*
X356116Y300206*
Y304143*
X365565Y313592*
X425407*
X429266Y317450*
Y319104*
X379344Y199813D02*
Y198631D01*
X382100Y195876*
Y191939*
X383281Y278946D02*
X444305D01*
X447061Y281702*
X383281Y278946D02*
X378951Y283277D01*
X375014*
X388006Y227372D02*
Y245876D01*
X389581Y247450*
X403360*
X404541Y248631*
X389974Y307687D02*
X379738D01*
X377770Y309655*
X392337Y217135D02*
Y226584D01*
X393911Y228159*
Y232490D02*
Y238789D01*
X391156Y241545*
X394699Y42726D02*
Y72254D01*
X392730Y74222*
Y85639*
X394699Y87608*
X398768*
X398860Y87700*
X397061Y241939D02*
Y216742D01*
X396274Y215954*
X402967Y208080D02*
X406116D01*
X419108Y195088*
X427376*
X431313Y191151*
Y162411*
X430132Y161230*
Y157293*
X429344Y156506*
X403360Y230128D02*
Y240757D01*
X401785Y242332*
X406116Y212017D02*
X410447D01*
X422652Y199813*
X427376*
X433675Y193513*
Y162017*
X435250Y160443*
Y132096*
X441156Y126191*
X408478Y182883D02*
X408085D01*
X406904Y181702*
Y164773*
X408085Y163592*
X410841Y178946D02*
Y173041D01*
X414384Y169498*
Y161230*
X414778*
X413006Y94694D02*
Y116151D01*
X415959Y119104*
X442337*
X445486Y122254*
X497061*
X499030Y124222*
Y163198*
X501392Y165561*
X420880Y181309D02*
Y164183D01*
X418321Y161624*
Y153750*
X421077Y150994*
X423045*
X425407Y148631*
Y125797*
X424226Y87608D02*
X420289D01*
X414778Y82096*
Y30521*
X420683Y24616*
X564778*
X567533Y21860*
Y18710*
X426589Y177765D02*
Y160836D01*
X423833Y158080*
X429738Y33277D02*
X487219D01*
X489974Y36033*
Y68907*
X487415Y71466*
X430132Y227372D02*
X464778D01*
X464935Y227529*
X465565*
X430230Y89576D02*
Y86131D01*
X427770Y83671*
X421470*
X417533Y79734*
Y32096*
X422258Y27372*
X584463*
X588400Y31309*
X591156*
X442730Y80128D02*
Y111230D01*
X449817Y118317*
X445486Y318710D02*
X450998Y324222D01*
X497455*
X447455Y39970D02*
X425801D01*
X423045Y42726*
X447455Y70679D02*
Y110836D01*
X451785Y115167*
X497455*
X501785Y119498*
Y159261*
X508478Y165954*
X451392Y125797D02*
Y139576D01*
X453754Y141939*
X475014*
X478557Y145482*
Y147450*
X454148Y317923D02*
Y277372D01*
X451392Y274616*
X378951*
X376589Y276978*
X458085Y171072D02*
X460447D01*
X462415Y169104*
X467140*
X469108Y171072*
X496274*
X498242Y169104*
X530132*
X460447Y280521D02*
X462809Y278159D01*
X475407*
X476195Y278946*
X464187Y69891D02*
Y90954D01*
X466352Y93120*
X504541*
X509266Y97844*
Y104143*
X506904Y106506*
Y130128*
X509266Y132490*
X468321Y212529D02*
X449817D01*
X473045Y69498D02*
Y86820D01*
X476195Y89970*
X560053*
X567533Y97450*
Y140364*
X560053Y147844*
Y212017*
X557691Y214380*
Y242726*
X555722Y244694*
X548242*
X473833Y316348D02*
X488203D01*
X474226Y300757D02*
Y290757D01*
X474620Y231702D02*
Y225403D01*
X471864Y222647*
X476982Y98631D02*
X502179D01*
X505722Y102175*
X477770Y37214D02*
X423439D01*
X422258Y36033*
X480919Y86427D02*
Y43907D01*
X478163Y41151*
X461825*
X460250Y42726*
X480919Y234458D02*
Y215954D01*
X476589Y211624*
Y200206*
X468321Y191939*
X484226Y290757D02*
Y274773D01*
X481707Y272254*
X357691*
X353754Y268317*
Y264380*
X485250Y186820D02*
X476589D01*
X466352Y176584*
X454541*
X451785Y173828*
Y173041*
X492730Y71072D02*
X505526D01*
X506707Y72254*
X492730Y178159D02*
Y182883D01*
X494305Y184458*
X494699*
X499817Y189576*
Y213986*
X502967Y217135*
X493911Y149419D02*
X493124D01*
X490368Y152175*
Y166742*
X491156Y167529*
X494226Y290757D02*
Y292805D01*
X489187Y297844*
Y308080*
X486825Y310443*
X465368*
X463793Y312017*
X495486Y191545D02*
X476589D01*
X469896Y184852*
X455722*
X448636Y177765*
X443911*
X442730Y176584*
Y171072*
X441549Y169891*
X498242Y176978D02*
Y182883D01*
X499817Y184458*
X514226Y290757D02*
Y292096D01*
X509659Y296663*
Y323435*
X504148Y328946*
X433203*
X429266Y325009*
Y319104*
X516746Y130521D02*
Y126978D01*
X518715Y125009*
X526392*
X529148Y122254*
Y107096*
X533281Y102962*
X535250*
X525014Y173828D02*
X465171D01*
X534226Y290757D02*
Y271624D01*
X532888Y270285*
X358478*
X357297Y269104*
Y265167*
X359266Y263198*
X361234*
X538400Y78159D02*
X591707D01*
X595644Y82096*
Y96820*
X597061Y98238*
X540762Y220679D02*
Y195088D01*
X540368Y194694*
X505722*
X503360Y192332*
X544226Y290757D02*
Y269813D01*
X541943Y267529*
X361628*
X561234Y215954D02*
Y224616D01*
X565171Y228553*
X580526Y223435D02*
Y235246D01*
X581707Y236427*
Y247450*
X580132Y249025*
X551785*
X550604Y250206*
X489974*
X487612Y247844*
Y245876*
X482100Y240364*
X584463Y207293D02*
Y252175D01*
X580132Y256506*
X554148*
X549817Y252175*
X487612*
X483281Y247844*
Y247057*
X586825Y202175D02*
Y204143D01*
X590762Y208080*
Y254143*
X586431Y258474*
X551785*
X547848Y254537*
X483281*
X479344Y250600*
Y245482*
X475407Y241545*
X438400*
X436825Y239970*
X423439*
X421077Y242332*
X594699Y197844D02*
Y211820D01*
X634856Y58868D02*
Y68317D01*
X632100Y71072*
D02*
D89*
X209187Y244911D02*
X215348D01*
X219502Y240757*
Y236427*
X216746Y233671*
Y220285*
X210447Y213986*
Y188002*
X205329Y182883*
X267114Y265561D02*
Y263173D01*
X262415Y258474*
X251785*
X249423Y256112*
Y254537*
X247848Y252962*
X238793*
X238400Y252569*
X285250Y88395D02*
X282888Y86033D01*
X250604*
X249423Y87214*
X216352*
X212415Y91151*
X158085*
X151785Y84852*
X91156*
X88006Y88002*
Y135246*
X80132Y143120*
X347061Y248238D03*
X352573D03*
X356904Y254537D03*
X364384Y260836D03*
X388400Y215167D03*
D02*
D90*
X347061Y248238D02*
Y250600D01*
X348242Y251781*
X354935*
X356116Y250600*
X378951*
X384856Y256506*
X419502*
X421077Y258080*
X356904Y254537D02*
X378557D01*
X382888Y258868*
X417927*
X423439Y264380*
X423833*
X388400Y215167D02*
X389581D01*
X391943Y212805*
X399030*
X403360Y217135*
X410696*
X413203Y219642*
Y241545*
X390762Y188395D02*
X421470D01*
X423439Y190364*
X416746Y228159D02*
Y249419D01*
X428163Y258474D02*
X426195D01*
X422258Y254537*
X385644*
X382494Y251387*
Y241939*
X379344Y238789*
X353951*
X352573Y240167*
Y248238*
X435644Y244694D02*
X425407D01*
X422258Y247844*
Y250994*
X420683Y252569*
X386431*
X384069Y250206*
Y239183*
X380919Y236033*
X350407*
X349226Y237214*
D02*
D91*
X285250Y88395D03*
X0Y0D02*
M02*
